SplineFontDB: 3.0
FontName: xkcd-Regular
FullName: xkcd Regular
FamilyName: xkcd
Weight: Roman
Copyright: xkcd is licensed under the Creative Commons Attribution-NonCommercial 3.0 License
Version: 001.001
ItalicAngle: 0
UnderlinePosition: -359
UnderlineWidth: 175
Ascent: 1638
Descent: 410
InvalidEm: 0
sfntRevision: 0x00010000
LayerCount: 2
Layer: 0 0 "Back" 1
Layer: 1 0 "Zeichen" 0
XUID: [1021 764 -1912903724 30835]
StyleMap: 0x0040
FSType: 4
OS2Version: 3
OS2_WeightWidthSlopeOnly: 0
OS2_UseTypoMetrics: 0
CreationTime: 1334520000
ModificationTime: 1488221572
PfmFamily: 65
TTFWeight: 400
TTFWidth: 5
LineGap: 0
VLineGap: 0
Panose: 0 0 0 0 0 0 0 0 0 0
OS2TypoAscent: 1638
OS2TypoAOffset: 0
OS2TypoDescent: -597
OS2TypoDOffset: 0
OS2TypoLinegap: 0
OS2WinAscent: 2257
OS2WinAOffset: 0
OS2WinDescent: 597
OS2WinDOffset: 0
HheadAscent: 2257
HheadAOffset: 0
HheadDescent: -597
HheadDOffset: 0
OS2SubXSize: 1331
OS2SubYSize: 1229
OS2SubXOff: 0
OS2SubYOff: 154
OS2SupXSize: 1331
OS2SupYSize: 1229
OS2SupXOff: 0
OS2SupYOff: 717
OS2StrikeYSize: 102
OS2StrikeYPos: 989
OS2FamilyClass: 2568
OS2Vendor: 'PYRS'
OS2CodePages: 00000001.00000000
OS2UnicodeRanges: 00000001.00000000.00000000.00000000
Lookup: 258 0 0 "'kern' Horizontales Kerning in Latin lookup 0" { "'kern' Horizontales Kerning in Latin lookup 0 subtable"  } ['kern' ('DFLT' <'dflt' > 'latn' <'dflt' > ) ]
MarkAttachClasses: 1
DEI: 91125
LangName: 1033 "Copyright (c) 2013 by xkcd. All rights reserved." "" "" "1.000;PYRS;xkcd-Regular" "xkcd-Regular" "Version 1.000;PS 001.001;hotconv 1.0.56" "" "Copyright (c) 2013 by xkcd. All rights reserved." "" "" "Copyright (c) 2013 by xkcd. All rights reserved."
GaspTable: 3 8 2 15 1 65535 3 0
Encoding: UnicodeBmp
UnicodeInterp: none
NameList: AGL For New Fonts
DisplaySize: -48
AntiAlias: 1
FitToEm: 0
WinInfo: 57 19 14
BeginPrivate: 0
EndPrivate

StartChar: .notdef
Encoding: 65536 -1 0
Width: 1024
Flags: HMW
HStem: 0 127 1878 129
VStem: 127 129 768 127
LayerCount: 2
Fore
SplineSet
256 129 m 1
 768 129 l 1
 768 1880 l 1
 256 1880 l 1
 256 129 l 1
129 0 m 1
 129 2007 l 1
 897 2007 l 1
 897 0 l 1
 129 0 l 1
EndSplineSet
Validated: 1
EndChar

StartChar: exclam
Encoding: 33 33 2
Width: 395
GlyphClass: 2
Flags: HMW
HStem: -16 225
VStem: 82 227 109 203
LayerCount: 2
Fore
SplineSet
104 37 m 0xa0
 69 86 72 158 158 197 c 0
 289 254 360 82 274 12 c 0
 213 -37 139 -10 104 37 c 0xa0
299 678 m 0
 301 627 303 510 285 442 c 0
 277 407 266 391 252 383 c 0
 246 379 239 377 231 375 c 0
 223 373 217 373 207 369 c 0
 137 349 111 455 111 475 c 0
 113 833 66 1166 82 1518 c 0xc0
 82 1536 86 1598 104 1614 c 0
 131 1639 276 1645 299 1618 c 0
 315 1600 317 1538 317 1477 c 0
 317 1416 313 1348 311 1315 c 0
 303 1102 295 907 299 678 c 0
EndSplineSet
Validated: 33
EndChar

StartChar: quotedbl
Encoding: 34 34 3
Width: 620
GlyphClass: 2
Flags: HMW
HStem: 1108 508
VStem: 115 203 387 201
LayerCount: 2
Fore
SplineSet
190 1110 m 0
 118 1110 105 1241 115 1364 c 0
 125 1485 162 1616 209 1616 c 2
 240 1616 l 2
 267 1618 297 1618 307 1587 c 0
 350 1458 284 1110 190 1110 c 0
469 1110 m 0
 385 1110 373 1243 389 1364 c 0
 403 1485 449 1618 492 1618 c 0
 523 1618 553 1616 567 1585 c 0
 628 1464 541 1110 469 1110 c 0
EndSplineSet
Validated: 33
EndChar

StartChar: numbersign
Encoding: 35 35 4
Width: 1429
GlyphClass: 2
Flags: HMW
HStem: 584 197 588 199 590 188 934 193 938 195
VStem: 86 1372
LayerCount: 2
Fore
SplineSet
698 940 m 1x94
 668 780 l 1
 736 780 797 782 858 784 c 1
 868 835 877 887 887 940 c 1
 698 940 l 1x94
1427 621 m 0
 1388 592 1350 584 1313 584 c 0x94
 1274 582 1237 588 1196 588 c 0x54
 1130 590 1063 590 991 592 c 1
 979 512 966 436 954 360 c 0
 946 303 948 226 932 158 c 0
 916 90 883 30 807 16 c 0
 723 0 733 149 739 174 c 0
 768 309 796 451 823 592 c 1
 760 592 698 590 635 590 c 1x34
 623 512 608 434 598 360 c 0
 590 303 589 226 575 158 c 0
 559 90 527 30 451 16 c 0
 367 0 377 149 383 174 c 0
 414 309 440 447 465 586 c 1
 414 584 364 582 315 580 c 0
 284 578 258 575 233 575 c 0
 208 575 186 576 168 582 c 0
 127 592 98 623 86 686 c 0
 70 778 299 786 324 784 c 0
 390 782 447 780 500 780 c 1
 510 831 518 883 528 936 c 1
 483 934 438 932 391 930 c 0
 362 930 332 924 303 920 c 0
 272 916 244 911 215 911 c 0
 160 913 111 938 88 1020 c 0
 63 1110 239 1133 266 1133 c 0x8c
 381 1129 477 1126 563 1126 c 1x94
 588 1261 612 1395 639 1524 c 0
 643 1547 661 1588 686 1602 c 0
 723 1625 783 1602 801 1561 c 0
 817 1520 809 1456 797 1397 c 0
 785 1336 764 1274 756 1233 c 2
 735 1130 l 1
 796 1130 856 1133 922 1135 c 1
 945 1266 966 1397 995 1524 c 0
 999 1547 1019 1588 1044 1602 c 0
 1079 1625 1141 1602 1157 1561 c 0
 1173 1520 1165 1456 1153 1397 c 0
 1139 1336 1122 1274 1114 1233 c 0
 1108 1202 1100 1168 1094 1135 c 1
 1155 1135 1220 1135 1296 1133 c 0
 1319 1133 1416 1123 1434 1100 c 0
 1459 1065 1477 994 1436 965 c 0
 1397 936 1358 928 1319 928 c 0
 1280 928 1241 936 1200 936 c 0
 1151 936 1104 938 1055 938 c 1
 1047 889 1036 837 1026 786 c 1x4c
 1116 788 1214 788 1339 784 c 0
 1349 784 1371 786 1391 784 c 0
 1411 782 1434 778 1444 764 c 0
 1469 729 1466 650 1427 621 c 0
EndSplineSet
Validated: 33
EndChar

StartChar: dollar
Encoding: 36 36 5
Width: 1259
GlyphClass: 2
Flags: HMW
HStem: 66 227
VStem: 86 231 442 236 444 207 750 207 758 201 948 18 1075 205
LayerCount: 2
Fore
SplineSet
664 686 m 1xe5
 660 598 655 510 653 430 c 0
 651 401 655 338 657 301 c 1
 673 299 719 295 739 295 c 1
 735 412 756 557 760 680 c 1
 733 680 689 686 664 686 c 1xe5
438 1210 m 0
 438 1224 436 1239 436 1249 c 1
 350 1202 219 1007 440 907 c 1
 444 942 444 991 442 1040 c 0
 442 1089 438 1138 440 1167 c 0
 440 1173 438 1192 438 1210 c 0
950 702 m 1
 948 782 950 828 952 848 c 0
 952 850 952 860 954 862 c 0
 960 868 965 862 965 862 c 2
 965 860 967 852 967 838 c 0xe3
 971 789 970 658 958 492 c 0
 958 478 954 445 950 410 c 0
 946 379 942 348 942 328 c 1
 1036 387 1069 445 1075 496 c 0
 1079 523 1077 546 1071 571 c 0
 1067 596 1059 619 1055 637 c 0
 1049 657 991 690 950 702 c 1
750 1198 m 0xe9
 752 1210 750 1223 750 1237 c 1
 725 1247 701 1256 676 1260 c 1
 678 1158 680 1015 678 909 c 1
 688 911 703 909 717 909 c 0
 729 907 744 907 752 905 c 1
 754 991 748 1120 750 1198 c 0xe9
958 113 m 1xe5
 950 74 936 43 911 31 c 0
 841 -2 799 23 774 70 c 1
 747 68 678 61 651 63 c 1
 643 30 625 4 596 -6 c 0
 490 -45 442 21 424 121 c 1
 252 187 66 303 68 381 c 0
 68 410 162 491 215 485 c 0
 254 479 293 459 332 436 c 0
 369 413 403 391 436 375 c 1
 440 430 442 512 444 553 c 0xd5
 444 590 444 639 442 690 c 1
 233 717 70 918 86 1053 c 0
 104 1192 243 1399 442 1483 c 1
 444 1522 440 1558 442 1587 c 0
 444 1616 452 1641 479 1645 c 0
 575 1663 619 1653 637 1624 c 0
 647 1610 651 1591 653 1573 c 0
 655 1555 655 1534 659 1511 c 1
 686 1509 712 1505 741 1499 c 1
 747 1554 762 1600 803 1616 c 0
 924 1661 961 1558 967 1427 c 1xe3
 1094 1372 1198 1292 1198 1200 c 0
 1198 1169 1145 1100 1090 1098 c 0
 1053 1098 1010 1114 961 1139 c 1
 961 1116 958 1095 958 1075 c 0
 958 1036 963 952 963 895 c 1
 1092 864 1220 797 1255 686 c 0
 1347 387 1185 197 958 113 c 1xe5
EndSplineSet
Validated: 37
EndChar

StartChar: percent
Encoding: 37 37 6
Width: 1630
GlyphClass: 2
Flags: HMW
HStem: -12 188 801 199 1423 188 1622 16
VStem: 80 176 610 172 942 176 1307 88 1450 180
LayerCount: 2
Fore
SplineSet
461 1425 m 0
 441 1423 346 1385 311 1317 c 0
 272 1241 230 1101 289 1040 c 0
 342 983 498 983 559 1065 c 0
 643 1174 639 1435 461 1425 c 0
1368 614 m 0
 1296 647 1153 587 1126 489 c 0
 1089 356 1190 117 1352 193 c 0
 1372 203 1444 272 1452 348 c 0
 1460 434 1446 579 1368 614 c 0
641 872 m 0
 444 743 149 795 96 1016 c 0
 26 1301 238 1577 377 1604 c 0
 563 1641 711 1554 760 1448 c 0
 821 1311 770 956 641 872 c 0
1309 1634 m 1
 1313 1634 1309 1630 1309 1630 c 1
 1303 1628 l 1
 1286 1626 l 1
 1268 1624 l 1
 1264 1622 l 1
 1262 1622 l 1
 1262 1628 l 1
 1262 1628 1258 1632 1262 1632 c 0
 1387 1655 1409 1577 1395 1485 c 0
 1381 1395 1329 1290 1296 1245 c 0
 1106 981 863 645 666 336 c 0
 631 283 590 191 543 113 c 0
 494 35 434 -31 362 -29 c 0
 272 -27 254 31 293 137 c 0
 318 205 375 297 438 391 c 0
 501 485 569 579 610 647 c 0
 692 782 858 1016 950 1153 c 0
 991 1216 1049 1323 1110 1421 c 0
 1171 1519 1241 1609 1307 1638 c 1
 1307 1638 1311 1636 1309 1634 c 1
1497 57 m 0
 1337 -45 1169 -23 1085 59 c 0
 976 163 891 512 979 639 c 0
 1112 832 1405 893 1538 709 c 0
 1710 471 1616 135 1497 57 c 0
EndSplineSet
Validated: 37
EndChar

StartChar: ampersand
Encoding: 38 38 7
Width: 1325
GlyphClass: 2
Flags: HMW
HStem: -27 207
VStem: 94 229 688 197
LayerCount: 2
Fore
SplineSet
655 479 m 0
 639 493 620 512 604 530 c 0
 588 550 571 570 553 588 c 0
 518 623 484 647 451 639 c 0
 396 623 285 405 338 303 c 0
 430 123 805 150 774 334 c 0
 772 342 698 442 655 479 c 0
438 1434 m 0
 377 1422 274 1278 297 1182 c 0
 305 1151 469 969 492 967 c 0
 549 959 680 1139 690 1202 c 0
 710 1327 559 1457 438 1434 c 0
1327 33 m 0
 1321 29 1317 26 1311 20 c 0
 1305 16 1296 8 1286 -2 c 0
 1253 -37 1187 8 1130 53 c 0
 1099 78 1072 103 1049 123 c 0
 1024 146 1007 160 1001 164 c 0
 985 170 955 144 924 115 c 0
 908 99 888 82 874 68 c 0
 860 54 846 43 836 37 c 0
 744 -14 604 -36 467 -18 c 0
 307 2 102 176 96 356 c 0
 92 465 142 578 193 666 c 0
 218 709 244 747 264 776 c 0
 282 805 295 823 295 827 c 0
 295 835 282 849 262 874 c 0
 242 897 215 923 188 958 c 0
 135 1030 82 1126 84 1253 c 0
 86 1357 195 1548 295 1595 c 0
 334 1613 395 1622 440 1626 c 0
 518 1634 680 1585 741 1544 c 0
 956 1401 908 1034 756 870 c 0
 748 862 737 854 725 846 c 0
 713 838 700 829 690 821 c 0
 670 805 654 790 664 774 c 0
 682 751 751 674 821 606 c 0
 854 573 888 543 913 520 c 0
 927 510 938 502 946 498 c 0
 950 494 952 490 954 492 c 0
 964 510 1062 658 1085 664 c 0
 1132 674 1247 604 1255 563 c 0
 1259 545 1251 526 1241 506 c 0
 1229 488 1212 464 1196 444 c 0
 1161 399 1131 356 1135 319 c 0
 1141 282 1190 247 1219 227 c 0
 1233 217 1250 209 1264 199 c 0
 1321 162 1381 121 1358 74 c 0
 1346 47 1337 39 1327 33 c 0
EndSplineSet
Validated: 33
EndChar

StartChar: quotesingle
Encoding: 39 39 8
Width: 321
GlyphClass: 2
Flags: HMW
HStem: 1057 565
VStem: 100 188
LayerCount: 2
Fore
SplineSet
129 1083 m 0
 111 1116 104 1174 102 1237 c 0
 98 1364 119 1524 135 1567 c 0
 145 1596 170 1616 197 1622 c 0
 277 1636 295 1509 289 1384 c 0
 283 1259 252 1118 221 1087 c 0
 180 1046 149 1050 129 1083 c 0
EndSplineSet
Validated: 33
EndChar

StartChar: parenleft
Encoding: 40 40 9
Width: 632
GlyphClass: 2
Flags: HMW
HStem: -100 1855
VStem: 61 229
LayerCount: 2
Fore
SplineSet
446 -80 m 0
 266 12 141 289 90 537 c 0
 14 891 100 1344 256 1563 c 0
 293 1616 409 1739 481 1753 c 0
 559 1769 637 1727 633 1655 c 0
 631 1606 592 1561 551 1520 c 0
 528 1500 507 1480 487 1462 c 0
 469 1446 452 1429 442 1413 c 0
 391 1337 345 1171 322 1087 c 0
 226 708 367 284 588 106 c 0
 602 94 621 86 637 78 c 0
 653 70 668 57 674 41 c 0
 707 -78 540 -129 446 -80 c 0
EndSplineSet
Validated: 33
EndChar

StartChar: parenright
Encoding: 41 41 10
Width: 624
GlyphClass: 2
Flags: HMW
HStem: -145 1905
VStem: 381 233
LayerCount: 2
Fore
SplineSet
477 190 m 0
 446 127 414 66 379 -2 c 0
 352 -55 275 -117 205 -137 c 0
 133 -160 63 -139 61 -33 c 0
 59 14 96 55 135 92 c 0
 153 108 174 127 190 141 c 0
 208 157 223 172 229 186 c 0
 379 456 440 879 317 1270 c 0
 305 1307 295 1350 281 1389 c 0
 267 1428 248 1463 223 1483 c 0
 221 1485 219 1487 215 1489 c 2
 203 1497 l 2
 166 1522 125 1554 94 1591 c 0
 49 1644 33 1710 137 1755 c 0
 219 1790 328 1671 377 1614 c 0
 395 1594 410 1575 416 1569 c 0
 623 1356 668 858 557 412 c 0
 537 326 508 256 477 190 c 0
EndSplineSet
Validated: 33
EndChar

StartChar: asterisk
Encoding: 42 42 11
Width: 712
GlyphClass: 2
Flags: HMW
HStem: 1055 459 1243 295
VStem: 78 629
LayerCount: 2
Fore
SplineSet
625 1243 m 0x60
 613 1245 596 1247 582 1243 c 0
 572 1243 565 1237 563 1225 c 0
 559 1202 578 1178 598 1151 c 0
 608 1137 619 1124 627 1112 c 0
 635 1098 641 1085 641 1073 c 0
 641 1044 623 1036 600 1034 c 2
 580 1034 l 2
 537 1032 516 1075 496 1104 c 0
 488 1118 475 1135 457 1133 c 0
 445 1133 438 1124 436 1108 c 0
 434 1102 434 1091 434 1083 c 0
 432 1073 432 1063 432 1053 c 0
 432 1014 426 967 373 971 c 0
 338 973 330 1016 324 1051 c 0
 320 1069 317 1088 313 1100 c 0
 311 1116 305 1122 299 1124 c 0
 293 1124 284 1118 276 1108 c 0
 264 1098 252 1085 240 1075 c 0
 215 1052 186 1041 170 1092 c 0
 162 1119 170 1139 180 1157 c 0
 190 1173 201 1190 197 1210 c 0
 195 1214 190 1219 178 1221 c 0
 166 1225 151 1225 137 1227 c 0
 108 1233 76 1241 78 1282 c 0
 80 1315 110 1325 137 1331 c 0
 149 1335 164 1339 174 1343 c 0
 186 1349 193 1356 195 1364 c 0
 195 1368 192 1372 188 1380 c 0
 184 1386 178 1395 172 1403 c 0
 160 1421 146 1444 150 1473 c 0
 158 1530 194 1519 225 1501 c 2
 274 1470 l 2
 288 1460 301 1456 307 1458 c 0
 321 1462 324 1474 322 1499 c 0
 320 1526 313 1554 319 1581 c 0
 321 1597 334 1606 350 1610 c 0
 354 1612 361 1614 367 1616 c 0
 416 1628 426 1594 430 1561 c 0
 432 1545 432 1525 436 1511 c 0
 438 1497 445 1489 453 1485 c 0
 459 1483 469 1489 481 1497 c 0
 495 1505 512 1518 528 1526 c 0
 563 1544 605 1552 625 1499 c 0
 633 1481 613 1457 590 1430 c 0
 580 1418 569 1405 561 1393 c 0
 553 1381 551 1372 551 1364 c 0
 553 1356 564 1354 578 1352 c 0
 594 1350 615 1350 635 1348 c 0
 674 1344 717 1333 705 1286 c 0
 695 1241 658 1241 625 1243 c 0x60
EndSplineSet
Validated: 33
EndChar

StartChar: plus
Encoding: 43 43 12
Width: 915
GlyphClass: 2
Flags: HMW
HStem: 719 172
VStem: 410 178 410 184
LayerCount: 2
Fore
SplineSet
758 719 m 0xa0
 727 719 697 719 670 717 c 0
 643 713 620 706 606 692 c 0
 586 669 580 641 580 608 c 0
 580 573 586 539 588 506 c 0xc0
 594 438 585 375 487 377 c 0
 411 377 406 442 410 510 c 0
 412 543 420 579 420 610 c 0
 422 643 418 670 406 686 c 0
 390 711 359 719 322 721 c 0
 283 725 242 719 203 717 c 0
 127 715 61 725 90 836 c 0
 104 889 164 893 223 893 c 0
 254 893 284 891 313 891 c 0
 342 893 367 899 383 909 c 0
 403 925 414 952 414 987 c 0
 416 1024 410 1065 410 1102 c 0
 408 1180 420 1249 522 1237 c 0
 563 1231 578 1215 584 1186 c 0
 590 1161 588 1126 596 1083 c 0
 598 1071 598 1056 598 1040 c 0
 598 1026 598 1009 596 995 c 0
 596 964 598 940 608 930 c 0
 651 885 701 883 750 887 c 0
 775 889 800 893 823 893 c 0
 848 893 873 891 893 879 c 0
 934 856 925 815 907 778 c 0
 882 723 819 719 758 719 c 0xa0
EndSplineSet
Validated: 33
EndChar

StartChar: comma
Encoding: 44 44 13
Width: 368
GlyphClass: 2
Flags: HMW
HStem: -334 520
VStem: 131 195
LayerCount: 2
Fore
SplineSet
111 -326 m 0
 31 -349 14 -310 20 -242 c 0
 22 -222 33 -202 47 -184 c 0
 59 -166 76 -147 90 -131 c 0
 121 -94 141 -62 125 -27 c 0
 115 -4 66 52 41 66 c 0
 -2 91 4 166 80 186 c 0
 98 190 144 184 164 176 c 0
 498 57 236 -289 111 -326 c 0
EndSplineSet
Validated: 33
EndChar

StartChar: hyphen
Encoding: 45 45 14
Width: 620
GlyphClass: 2
Flags: HMW
HStem: 639 186
VStem: 49 537
LayerCount: 2
Fore
SplineSet
526 647 m 0
 501 641 478 639 451 639 c 0
 428 639 403 641 387 641 c 2
 299 641 l 2
 266 641 232 641 207 645 c 0
 189 649 154 647 123 651 c 0
 92 653 61 661 55 686 c 0
 41 741 52 772 68 788 c 0
 84 804 107 809 127 813 c 0
 229 829 342 831 438 821 c 0
 461 819 491 817 518 811 c 0
 545 805 572 794 578 776 c 0
 605 698 573 663 526 647 c 0
EndSplineSet
Validated: 33
EndChar

StartChar: period
Encoding: 46 46 15
Width: 356
GlyphClass: 2
Flags: HMW
HStem: -2 262
VStem: 51 262
LayerCount: 2
Fore
SplineSet
76 61 m 0
 35 116 37 201 137 246 c 0
 289 314 368 111 270 31 c 0
 198 -28 117 4 76 61 c 0
EndSplineSet
Validated: 33
EndChar

StartChar: slash
Encoding: 47 47 16
Width: 989
GlyphClass: 2
Flags: HMW
HStem: -12 1677
VStem: 66 977
LayerCount: 2
Fore
SplineSet
983 1376 m 0
 948 1310 904 1247 881 1204 c 0
 725 913 551 565 397 246 c 0
 391 232 379 209 367 182 c 0
 320 90 244 -12 129 -12 c 0
 35 -12 70 92 86 121 c 0
 348 592 590 1122 846 1595 c 0
 858 1620 893 1659 928 1665 c 0
 977 1675 1036 1624 1042 1569 c 0
 1048 1514 1020 1444 983 1376 c 0
EndSplineSet
Validated: 33
EndChar

StartChar: zero
Encoding: 48 48 17
Width: 1339
GlyphClass: 2
Flags: HMW
HStem: -33 223 1417 229
VStem: 63 229 1055 219
LayerCount: 2
Fore
SplineSet
891 1370 m 0
 840 1388 702 1421 655 1417 c 0
 641 1417 628 1417 614 1411 c 0
 266 1284 149 430 530 227 c 0
 639 170 755 178 831 266 c 0
 960 416 1051 692 1055 934 c 0
 1059 1106 991 1335 891 1370 c 0
1200 471 m 0
 1075 135 850 -157 426 25 c 0
 309 74 123 244 94 377 c 0
 2 817 127 1407 393 1575 c 0
 448 1610 512 1630 596 1638 c 0
 686 1648 737 1652 817 1640 c 0
 870 1632 920 1611 969 1597 c 0
 1092 1564 1250 1294 1266 1157 c 0
 1293 930 1270 657 1200 471 c 0
EndSplineSet
Validated: 33
EndChar

StartChar: one
Encoding: 49 49 18
Width: 499
GlyphClass: 2
Flags: HMW
HStem: 1593 41G
VStem: 84 285 174 219
LayerCount: 2
Fore
SplineSet
369 229 m 0xc0
 367 96 340 -24 207 -16 c 0
 96 -10 78 174 86 303 c 0
 98 506 168 823 174 1085 c 0xa0
 176 1167 162 1298 162 1411 c 0
 164 1524 182 1626 268 1636 c 0
 391 1650 416 1544 420 1403 c 0
 428 1034 377 596 369 229 c 0xc0
EndSplineSet
Validated: 33
EndChar

StartChar: two
Encoding: 50 50 19
Width: 1261
GlyphClass: 2
Flags: HMW
HStem: -25 217 1417 223
VStem: 61 1133
LayerCount: 2
Fore
SplineSet
1036 -27 m 0
 952 -35 852 -25 786 -25 c 0
 675 -25 486 -36 330 -18 c 0
 174 2 46 51 66 176 c 0
 72 211 88 274 113 303 c 0
 232 446 442 674 598 813 c 0
 631 844 670 868 711 899 c 0
 750 928 788 958 823 993 c 0
 893 1061 944 1143 944 1264 c 0
 942 1407 759 1442 573 1403 c 0
 520 1391 475 1346 438 1307 c 0
 424 1293 409 1276 397 1260 c 0
 340 1197 285 1132 219 1126 c 0
 135 1118 133 1200 135 1274 c 0
 141 1417 438 1642 567 1642 c 0
 987 1642 1233 1549 1190 1223 c 0
 1170 1059 1100 954 1014 864 c 0
 971 819 923 780 874 737 c 0
 827 696 778 655 733 606 c 0
 725 598 631 510 541 420 c 0
 449 328 367 237 371 219 c 0
 381 170 766 201 797 205 c 0
 840 209 887 215 932 217 c 0
 977 219 1020 221 1059 215 c 0
 1137 203 1196 166 1194 78 c 0
 1194 4 1120 -21 1036 -27 c 0
EndSplineSet
Validated: 33
EndChar

StartChar: three
Encoding: 51 51 20
Width: 1339
GlyphClass: 2
Flags: HMW
HStem: -33 229 774 211 1438 197
VStem: 25 1288 1067 246
LayerCount: 2
Fore
SplineSet
932 8 m 0xe0
 621 -121 203 92 170 358 c 0
 160 436 192 514 266 522 c 0
 377 534 409 418 442 338 c 0
 452 311 463 290 477 276 c 0
 690 65 1120 313 1069 561 c 0
 1053 635 1003 731 897 762 c 0
 852 774 794 776 733 776 c 0
 672 774 606 770 549 772 c 0
 432 774 332 801 336 926 c 0
 338 969 366 1012 401 1051 c 0
 436 1092 477 1126 500 1155 c 0
 508 1163 530 1183 557 1206 c 0
 584 1229 616 1257 647 1286 c 0
 713 1343 762 1399 754 1419 c 0
 748 1437 686 1444 612 1440 c 0
 540 1438 463 1425 428 1423 c 0
 387 1419 338 1415 289 1411 c 0
 238 1407 186 1403 143 1407 c 0
 57 1413 -6 1444 43 1532 c 0
 80 1600 307 1636 424 1636 c 0
 629 1636 798 1620 952 1636 c 0
 1056 1646 1104 1636 1110 1597 c 0
 1114 1581 1108 1557 1098 1530 c 0
 1090 1501 1075 1469 1063 1432 c 0
 1047 1385 1004 1337 961 1292 c 0
 918 1249 871 1211 842 1180 c 2
 809 1147 l 2
 776 1116 723 1061 731 1012 c 0
 735 992 776 987 829 987 c 0
 854 987 880 989 905 989 c 0
 928 989 948 989 958 987 c 0
 1214 926 1270 774 1305 616 c 0
 1366 340 1110 82 932 8 c 0xe0
EndSplineSet
Validated: 33
EndChar

StartChar: four
Encoding: 52 52 21
Width: 1200
GlyphClass: 2
Flags: HMW
HStem: 700 201
VStem: 63 225 811 256<43 67 -4 207> 834 270
LayerCount: 2
Fore
SplineSet
1079 459 m 0xd0
 1069 320 1067 84 1067 49 c 0
 1067 -57 829 -96 811 43 c 0
 805 90 807 148 811 207 c 0xe0
 815 266 821 326 823 375 c 0
 825 449 852 585 815 651 c 0
 770 729 553 696 504 682 c 0
 391 651 172 659 106 702 c 0
 67 727 61 741 61 784 c 0
 61 798 63 816 63 836 c 0
 71 1076 136 1610 238 1649 c 1
 285 1649 l 2
 289 1649 293 1647 293 1647 c 1
 373 1661 413 1575 401 1501 c 0
 393 1446 372 1388 352 1329 c 0
 334 1272 315 1214 305 1153 c 0
 301 1122 291 1069 289 1020 c 0
 287 971 291 932 309 920 c 0
 379 877 600 918 684 928 c 0
 707 930 735 930 760 930 c 0
 787 932 807 934 817 942 c 0
 835 954 844 1000 852 1053 c 0
 858 1104 860 1157 862 1180 c 0
 864 1198 864 1218 862 1243 c 0
 860 1268 856 1294 854 1321 c 0
 848 1374 844 1427 852 1458 c 0
 881 1585 1080 1546 1100 1450 c 0
 1112 1384 1116 1290 1114 1194 c 0
 1114 1100 1108 1004 1106 936 c 0
 1100 799 1087 588 1079 459 c 0xd0
EndSplineSet
Validated: 33
EndChar

StartChar: five
Encoding: 53 53 22
Width: 1212
GlyphClass: 2
Flags: HMW
HStem: -37 213 883 203 1421 213 1432 203
VStem: 150 199 932 199
LayerCount: 2
Fore
SplineSet
1051 1368 m 0xdc
 1033 1366 1008 1368 979 1372 c 0
 950 1376 915 1380 874 1384 c 0
 800 1390 698 1411 604 1421 c 0
 508 1433 424 1439 389 1421 c 0xec
 354 1403 317 1061 389 1028 c 0
 412 1018 465 1033 522 1051 c 0
 549 1059 577 1067 602 1075 c 0
 627 1081 648 1087 662 1087 c 0
 1057 1075 1196 787 1104 338 c 0
 1051 78 846 -37 498 -35 c 0
 314 -35 27 172 72 348 c 0
 95 430 139 426 182 395 c 0
 202 381 224 358 240 340 c 0
 258 320 273 301 281 293 c 0
 316 256 396 192 449 184 c 0
 609 157 815 203 862 287 c 0
 1038 600 864 910 565 885 c 0
 540 883 508 870 471 856 c 0
 434 844 393 827 354 815 c 0
 276 792 199 784 166 858 c 0
 139 919 139 1018 141 1116 c 0
 145 1214 156 1314 152 1386 c 0
 150 1417 156 1558 156 1585 c 0
 156 1634 268 1638 395 1634 c 0
 526 1630 686 1618 797 1622 c 0
 883 1626 1040 1616 1114 1616 c 0
 1149 1616 1165 1601 1128 1454 c 0
 1114 1397 1092 1374 1051 1368 c 0xdc
EndSplineSet
Validated: 33
EndChar

StartChar: six
Encoding: 54 54 23
Width: 1253
GlyphClass: 2
Flags: HMW
HStem: -16 205 588 223
VStem: 78 254
LayerCount: 2
Fore
SplineSet
602 580 m 0
 522 568 412 506 410 422 c 0
 406 258 576 188 668 188 c 0
 783 190 958 307 958 420 c 0
 958 592 772 605 602 580 c 0
117 334 m 0
 41 524 98 811 129 1008 c 0
 160 1203 316 1477 457 1573 c 0
 516 1612 774 1702 799 1548 c 0
 809 1485 772 1454 725 1434 c 0
 702 1424 678 1417 653 1407 c 0
 628 1399 606 1390 588 1378 c 0
 438 1278 326 889 334 682 c 1
 500 825 760 835 938 786 c 0
 1047 757 1203 575 1176 395 c 0
 1098 -144 303 -137 117 334 c 0
EndSplineSet
Validated: 33
EndChar

StartChar: seven
Encoding: 55 55 24
Width: 1150
GlyphClass: 2
Flags: HMW
HStem: 1368 266 1593 41G
VStem: 51 1032
LayerCount: 2
Fore
SplineSet
963 1192 m 0x60
 916 1090 864 992 852 963 c 0
 829 914 758 758 686 594 c 0
 614 428 542 254 528 168 c 0
 520 121 469 34 453 20 c 0
 435 6 357 -29 328 -27 c 0
 226 -21 256 137 274 223 c 0
 309 385 402 577 500 770 c 0
 598 963 701 1155 756 1313 c 0
 770 1356 752 1366 705 1368 c 0xa0
 660 1368 590 1358 520 1352 c 0
 481 1350 428 1343 371 1339 c 0
 314 1333 252 1333 201 1337 c 0
 95 1347 15 1386 70 1503 c 0
 78 1521 114 1551 143 1559 c 0
 235 1588 358 1602 481 1610 c 0
 602 1618 723 1622 811 1634 c 0
 965 1654 1126 1618 1073 1442 c 0
 1061 1399 1012 1294 963 1192 c 0x60
EndSplineSet
Validated: 33
EndChar

StartChar: eight
Encoding: 56 56 25
Width: 1169
GlyphClass: 2
Flags: HMW
HStem: -31 176 610 354 1413 217
VStem: 35 236 49 260 772 215 872 227
LayerCount: 2
Fore
SplineSet
598 610 m 0xea
 438 608 248 352 328 223 c 0
 455 18 1006 269 844 502 c 0
 789 582 668 612 598 610 c 0xea
584 1415 m 0
 545 1413 492 1397 459 1393 c 0
 246 1373 151 965 522 967 c 0
 723 967 768 1163 772 1212 c 0xec
 782 1308 676 1419 584 1415 c 0
854 928 m 0
 823 897 793 873 768 848 c 0
 743 823 731 805 731 793 c 0
 733 789 740 782 756 776 c 0
 770 770 792 762 817 754 c 0
 868 738 930 713 981 662 c 0
 1313 330 881 -27 559 -31 c 0
 223 -37 -9 86 63 399 c 0
 73 442 100 500 127 543 c 0
 139 559 157 578 182 598 c 0
 205 616 231 637 256 657 c 0
 309 698 350 734 350 754 c 0
 350 766 336 779 305 795 c 0
 274 811 236 827 197 850 c 0
 117 895 35 960 35 1069 c 0xf2
 35 1343 178 1618 467 1632 c 0
 647 1642 852 1575 926 1452 c 0
 961 1393 977 1352 985 1307 c 0
 987 1284 989 1260 989 1233 c 0
 989 1206 987 1178 987 1141 c 0
 985 1061 917 987 854 928 c 0
EndSplineSet
Validated: 33
EndChar

StartChar: nine
Encoding: 57 57 26
Width: 1064
GlyphClass: 2
Flags: HMW
HStem: 797 197 1411 209
VStem: 51 236 762 240
LayerCount: 2
Fore
SplineSet
535 1413 m 0
 400 1397 244 1237 299 1067 c 0
 317 1012 424 987 504 995 c 0
 590 1003 770 1188 762 1282 c 0
 756 1345 617 1423 535 1413 c 0
893 977 m 0
 850 903 820 832 791 756 c 0
 760 678 733 600 700 512 c 0
 675 446 652 352 623 264 c 0
 596 176 567 90 528 41 c 0
 471 -35 389 -64 356 49 c 0
 323 155 383 312 418 412 c 0
 434 461 471 529 496 584 c 0
 502 598 523 643 541 690 c 0
 557 737 569 783 561 801 c 0
 557 809 546 811 526 809 c 0
 506 809 480 803 449 799 c 0
 390 791 314 784 248 823 c 0
 96 911 -10 1141 90 1370 c 0
 147 1503 323 1604 485 1620 c 0
 628 1634 799 1597 897 1499 c 0
 954 1444 1007 1397 1001 1309 c 0
 997 1248 922 1024 893 977 c 0
EndSplineSet
Validated: 33
EndChar

StartChar: colon
Encoding: 58 58 27
Width: 335
GlyphClass: 2
Flags: HMW
HStem: 2 248 717 246
VStem: 29 254 37 254
LayerCount: 2
Fore
SplineSet
55 61 m 0xc0
 14 116 17 195 113 238 c 0
 258 301 338 111 242 31 c 0
 174 -22 94 8 55 61 c 0xc0
61 776 m 0
 22 829 25 909 121 952 c 0
 266 1015 346 823 250 745 c 0
 182 690 102 721 61 776 c 0
EndSplineSet
Validated: 33
EndChar

StartChar: semicolon
Encoding: 59 59 28
Width: 395
GlyphClass: 2
Flags: HMW
HStem: 709 256
VStem: 51 254 63 297
LayerCount: 2
Fore
SplineSet
156 -360 m 0x80
 80 -385 64 -342 72 -272 c 0
 74 -252 82 -231 96 -211 c 0
 108 -193 123 -174 137 -156 c 0
 166 -119 186 -82 170 -45 c 0
 160 -20 115 39 90 53 c 0
 49 78 55 158 127 178 c 0
 145 184 189 174 207 166 c 0
 522 39 275 -321 156 -360 c 0x80
76 770 m 0
 37 825 39 907 135 952 c 0
 280 1018 358 819 264 739 c 0
 196 682 115 715 76 770 c 0
EndSplineSet
Validated: 33
EndChar

StartChar: less
Encoding: 60 60 29
Width: 894
GlyphClass: 2
Flags: HMW
HStem: 119 1321
VStem: 74 293
LayerCount: 2
Fore
SplineSet
829 1198 m 0
 811 1184 790 1169 770 1157 c 0
 750 1145 731 1132 717 1122 c 0
 674 1087 629 1051 586 1012 c 0
 541 973 498 934 461 893 c 0
 455 887 444 878 434 868 c 0
 414 850 369 811 369 780 c 0
 369 737 428 680 500 627 c 0
 535 602 571 578 602 555 c 0
 633 535 660 516 674 504 c 0
 688 492 706 475 729 455 c 0
 795 394 872 305 862 209 c 0
 858 162 805 121 762 121 c 0
 705 121 664 158 627 199 c 0
 609 219 589 242 571 262 c 0
 555 280 536 299 516 313 c 0
 364 413 198 604 94 735 c 0
 47 792 90 848 127 893 c 0
 141 907 154 924 166 938 c 0
 215 997 260 1032 307 1065 c 0
 332 1083 356 1100 381 1120 c 0
 408 1140 434 1165 463 1196 c 0
 535 1274 696 1434 811 1442 c 0
 858 1446 913 1393 907 1309 c 0
 903 1262 868 1227 829 1198 c 0
EndSplineSet
Validated: 33
EndChar

StartChar: equal
Encoding: 61 61 30
Width: 620
GlyphClass: 2
Flags: W
HStem: 475 162<43.5411 285 424 565.218> 709 131<43.1482 557.436>
LayerCount: 2
Fore
SplineSet
31 782 m 0
 31 796 45 830 88 840 c 0
 100 844 88 840 180 854 c 1
 286 842 322 850 385 850 c 0
 469 850 526 849 559 831 c 0
 620 782 563 723 549 719 c 0
 500 701 535 719 449 709 c 0
 412 705 358 709 313 709 c 0
 264 709 186 705 143 709 c 0
 59 719 31 759 31 782 c 0
512 481 m 2
 41 520 l 1
 47 495 78 487 109 485 c 0
 140 481 175 483 193 479 c 0
 218 475 252 475 285 475 c 2
 373 475 l 2
 389 475 413 473 436 473 c 0
 463 473 487 475 512 481 c 2
512 481 m 0
 559 497 573 497 573 573 c 0
 573 591 543 621 516 627 c 0
 489 633 447 631 424 633 c 0
 328 643 269 631 152 637 c 0
 46 643 61 610 45 594 c 0
 29 578 27 575 41 520 c 0
 47 495 78 487 109 485 c 0
 140 481 175 483 193 479 c 0
 218 475 252 475 285 475 c 2
 373 475 l 2
 389 475 413 473 436 473 c 0
 463 473 487 475 512 481 c 0
EndSplineSet
Validated: 37
EndChar

StartChar: greater
Encoding: 62 62 31
Width: 890
GlyphClass: 2
Flags: HMW
HStem: 180 1217
VStem: 649 250
LayerCount: 2
Fore
SplineSet
850 678 m 0
 838 658 823 641 803 625 c 0
 778 607 750 580 721 553 c 2
 645 477 l 2
 586 418 538 371 489 326 c 0
 442 283 393 244 330 215 c 0
 254 180 172 145 172 264 c 0
 172 319 186 352 209 377 c 0
 232 402 260 420 285 440 c 0
 316 469 356 501 395 532 c 0
 436 565 474 596 494 616 c 0
 525 649 647 756 651 793 c 0
 655 848 568 938 539 963 c 0
 498 998 442 1042 379 1085 c 0
 330 1118 274 1138 221 1165 c 0
 170 1190 125 1221 109 1276 c 0
 86 1350 172 1387 215 1397 c 0
 291 1413 389 1341 444 1298 c 0
 491 1259 549 1223 604 1182 c 0
 659 1141 715 1098 764 1051 c 0
 821 994 940 844 889 750 c 0
 873 721 862 698 850 678 c 0
EndSplineSet
Validated: 33
EndChar

StartChar: question
Encoding: 63 63 32
Width: 950
GlyphClass: 2
Flags: HMW
HStem: -2 233 1436 211
VStem: 272 254 315 180 676 250
LayerCount: 2
Fore
SplineSet
297 55 m 0xe8
 258 106 262 182 358 221 c 0
 503 278 581 99 483 25 c 0
 413 -26 334 4 297 55 c 0xe8
510 778 m 0
 500 774 498 709 498 631 c 2
 498 528 l 2
 498 497 498 475 496 469 c 0
 467 397 321 377 311 449 c 0
 303 515 278 848 315 938 c 0xd8
 329 973 379 985 430 995 c 0
 455 999 481 1006 506 1010 c 0
 533 1016 553 1020 569 1028 c 0
 735 1106 733 1481 403 1436 c 0
 335 1428 289 1393 244 1346 c 0
 232 1332 219 1317 207 1305 c 0
 158 1252 113 1211 31 1260 c 0
 13 1270 -18 1307 -16 1348 c 0
 -12 1493 250 1641 416 1647 c 0
 848 1661 1071 1301 825 967 c 0
 764 885 647 827 510 778 c 0
EndSplineSet
Validated: 33
EndChar

StartChar: at
Encoding: 64 64 33
Width: 1581
GlyphClass: 2
Flags: HMW
HStem: 18 225 489 213 985 219 1405 211
VStem: 66 244 1427 193
LayerCount: 2
Fore
SplineSet
723 700 m 1
 772 684 836 739 877 811 c 0
 920 885 932 961 893 979 c 0
 778 1036 696 780 723 700 c 1
1018 659 m 1
 930 538 749 454 610 524 c 0
 469 596 498 794 547 950 c 0
 586 1071 674 1167 793 1194 c 0
 883 1214 959 1209 1018 1176 c 0
 1049 1160 1063 1146 1073 1128 c 0
 1079 1118 1083 1108 1087 1096 c 0
 1093 1082 1100 1065 1108 1042 c 0
 1112 1036 1114 1024 1118 1008 c 0
 1120 994 1124 972 1128 952 c 0
 1138 909 1151 858 1169 813 c 0
 1204 723 1255 663 1341 731 c 0
 1577 921 1282 1321 1085 1374 c 0
 825 1446 596 1397 432 1192 c 0
 309 1040 263 643 367 465 c 0
 437 346 516 289 627 266 c 0
 791 231 864 242 995 281 c 0
 1089 310 1217 215 1143 133 c 0
 950 -76 396 34 240 231 c 0
 209 268 184 299 164 330 c 0
 141 361 123 391 109 424 c 0
 80 492 66 569 66 692 c 0
 66 899 102 1073 174 1225 c 0
 305 1506 651 1681 1022 1597 c 0
 1372 1519 1622 1247 1622 915 c 2
 1622 829 l 1
 1593 567 1194 311 1018 659 c 1
EndSplineSet
Validated: 33
EndChar

StartChar: A
Encoding: 65 65 34
Width: 1327
GlyphClass: 2
Flags: HMW
HStem: -4 43G<1125 1192> 594 213 1356 279<559 671>
VStem: 20 1270
LayerCount: 2
Fore
SplineSet
580 1356 m 0
 539 1356 506 1292 479 1212 c 0
 452 1136 438 1051 430 1016 c 0
 420 967 395 919 395 866 c 0
 395 831 404 817 414 813 c 0
 420 809 428 807 440 807 c 2
 477 807 l 2
 532 807 870 822 895 842 c 0
 913 860 920 884 920 913 c 0
 920 1073 762 1356 580 1356 c 0
1163 -4 m 0
 1087 -4 1054 59 1040 129 c 0
 1032 166 1030 205 1026 240 c 0
 1022 275 1018 307 1012 332 c 0
 1000 373 993 409 985 442 c 0
 979 475 968 501 956 524 c 0
 931 569 887 596 791 596 c 0
 719 596 399 598 354 571 c 0
 325 555 309 516 301 463 c 0
 291 408 289 344 283 283 c 0
 273 160 254 37 158 37 c 0
 62 37 20 63 20 143 c 0
 20 151 23 260 29 285 c 0
 35 310 43 336 45 348 c 0
 68 467 80 590 111 709 c 0
 146 846 190 979 231 1114 c 0
 256 1192 276 1321 317 1432 c 0
 358 1543 422 1634 535 1634 c 0
 975 1634 1086 1165 1139 823 c 0
 1151 737 1190 585 1225 440 c 0
 1260 295 1292 153 1292 90 c 0
 1292 14 1220 -4 1163 -4 c 0
EndSplineSet
Validated: 33
EndChar

StartChar: B
Encoding: 66 66 35
Width: 1275
GlyphClass: 2
Flags: HMW
HStem: -8 203 1399 238
VStem: 80 221<638 919> 795 246 946 281<425 536 360 581>
LayerCount: 2
Fore
SplineSet
727 776 m 0xe8
 666 794 589 776 526 776 c 0
 458 776 377 815 377 897 c 0
 377 975 458 1012 524 1016 c 0
 645 1022 797 1147 797 1276 c 0
 797 1376 686 1399 602 1399 c 0
 366 1399 279 1288 279 1063 c 0
 279 932 301 803 301 674 c 0
 301 602 287 535 287 463 c 0
 287 262 344 248 528 205 c 0
 557 199 587 195 616 195 c 0
 792 195 946 336 946 514 c 0
 946 647 852 741 727 776 c 0xe8
623 -6 m 0
 476 -6 307 2 162 41 c 0
 111 53 88 146 78 238 c 0
 66 330 68 430 68 467 c 0
 68 602 80 735 80 868 c 0
 80 968 74 1067 74 1165 c 0
 74 1237 71 1448 139 1487 c 0
 250 1553 410 1638 541 1638 c 0
 746 1638 1040 1427 1040 1204 c 0xf0
 1040 1112 989 1063 936 1026 c 0
 911 1010 884 995 866 981 c 0
 848 967 838 954 838 940 c 0
 838 926 849 913 874 901 c 0
 897 887 930 874 965 860 c 0
 1033 833 1110 798 1139 739 c 0
 1178 659 1227 581 1227 489 c 0
 1227 231 856 -6 623 -6 c 0
EndSplineSet
Validated: 33
EndChar

StartChar: C
Encoding: 67 67 36
Width: 1206
GlyphClass: 2
Flags: HMW
HStem: -16 233<695 795 595 805> 1370 276
VStem: 33 213<645 877 645 1005>
LayerCount: 2
Fore
SplineSet
715 -16 m 0
 676 -16 637 -16 600 -12 c 0
 221 23 33 463 33 797 c 0
 33 1213 309 1647 764 1647 c 0
 881 1647 1104 1573 1104 1423 c 0
 1104 1384 1085 1292 1030 1292 c 0
 1016 1292 997 1297 977 1305 c 0
 957 1313 934 1321 909 1331 c 0
 858 1351 799 1372 733 1372 c 0
 688 1372 643 1364 600 1352 c 0
 414 1299 246 968 246 784 c 0
 246 505 446 217 743 217 c 0
 845 217 893 258 934 297 c 0
 954 317 972 338 995 352 c 0
 1020 368 1046 379 1083 379 c 0
 1157 379 1159 319 1159 266 c 0
 1159 28 895 -16 715 -16 c 0
EndSplineSet
Validated: 1
EndChar

StartChar: D
Encoding: 68 68 37
Width: 1288
GlyphClass: 2
Flags: HMW
HStem: 2 223<338 528 338 578> 1409 223<480 538>
VStem: 29 252 68 262 1004 258
LayerCount: 2
Fore
SplineSet
817 1325 m 0xe8
 727 1366 585 1409 489 1409 c 0
 471 1409 454 1409 438 1405 c 0
 379 1391 354 1384 342 1368 c 0
 336 1362 334 1351 332 1337 c 0
 330 1321 330 1303 330 1278 c 0xd8
 330 1012 330 733 297 471 c 0
 291 420 281 370 281 319 c 0
 281 256 305 225 371 225 c 0
 686 225 1006 741 1006 1028 c 0
 1006 1167 944 1266 817 1325 c 0xe8
1196 717 m 0
 1014 346 811 2 344 2 c 0
 184 2 31 6 31 211 c 0
 31 297 53 379 59 463 c 0
 79 703 70 948 70 1190 c 0
 70 1233 66 1331 74 1423 c 0
 82 1513 103 1602 156 1614 c 0
 222 1630 299 1632 365 1632 c 0
 736 1632 1262 1419 1262 977 c 0
 1262 885 1235 797 1196 717 c 0
EndSplineSet
Validated: 33
EndChar

StartChar: E
Encoding: 69 69 38
Width: 1226
GlyphClass: 2
Flags: HMW
HStem: -4 43G 25 266 766 213 1354 281 1380 254<138 497>
VStem: 49 203 80 195
LayerCount: 2
Fore
SplineSet
920 35 m 0xb4
 783 23 631 25 582 25 c 0x74
 457 25 334 -6 209 -6 c 0
 186 -6 166 -6 143 -2 c 0
 90 6 67 105 57 203 c 0
 47 303 51 412 51 455 c 0
 51 670 82 887 82 1104 c 0
 82 1227 77 1356 57 1479 c 0
 55 1497 51 1516 51 1532 c 0
 51 1614 102 1634 174 1634 c 0
 444 1634 719 1630 991 1630 c 0
 1032 1630 1108 1563 1108 1520 c 0
 1108 1383 913 1356 821 1356 c 0
 690 1356 561 1380 432 1380 c 0
 399 1380 361 1380 330 1370 c 0
 285 1354 274 1137 274 1094 c 0xaa
 274 1008 279 979 375 979 c 0
 447 979 518 995 592 995 c 0
 672 995 725 979 725 887 c 0
 725 805 668 774 600 766 c 0
 565 762 529 762 494 764 c 0
 461 764 428 768 403 768 c 0
 317 768 280 744 264 707 c 0
 256 687 254 662 252 633 c 2
 252 535 l 2
 252 500 256 301 281 281 c 0
 304 263 338 262 369 262 c 0
 519 262 667 293 819 293 c 0
 901 293 1190 287 1190 150 c 0
 1190 78 1057 47 920 35 c 0xb4
EndSplineSet
Validated: 33
EndChar

StartChar: F
Encoding: 70 70 39
Width: 1107
GlyphClass: 2
Flags: HMW
HStem: -12 43G 743 238 756 195 1399 242 1409 231<350 574>
VStem: 78 236 104 250
LayerCount: 2
Fore
SplineSet
971 1384 m 0xca
 871 1384 872 1401 772 1401 c 0
 692 1401 615 1409 535 1409 c 0
 478 1409 363 1403 328 1354 c 0
 322 1346 322 1292 322 1280 c 0
 322 1239 330 1001 344 981 c 0
 362 956 393 952 426 952 c 0
 510 952 594 983 678 983 c 0
 746 983 793 957 793 881 c 0
 793 781 739 743 645 743 c 0xcc
 582 743 518 756 455 756 c 0
 353 756 313 735 313 631 c 0xb4
 313 514 354 402 354 287 c 0
 354 262 356 232 354 201 c 0
 352 117 336 -10 223 -10 c 0
 200 -10 179 -6 156 0 c 0
 119 12 108 77 104 143 c 0
 100 209 106 278 106 309 c 0
 106 528 80 748 80 969 c 0
 80 1094 61 1219 61 1346 c 0
 61 1498 76 1573 127 1608 c 0
 152 1626 184 1634 225 1638 c 0
 266 1642 317 1640 383 1640 c 2
 934 1636 l 2
 1014 1636 1139 1626 1139 1520 c 0
 1139 1428 1065 1384 971 1384 c 0xca
EndSplineSet
Validated: 33
EndChar

StartChar: G
Encoding: 71 71 40
Width: 1423
GlyphClass: 2
Flags: HMW
HStem: 4 238 678 244 1368 268
VStem: 12 229<769 893 649 1030> 1133 227
LayerCount: 2
Fore
SplineSet
784 6 m 0
 731 6 678 10 625 20 c 0
 377 67 100 327 41 573 c 0
 23 651 12 729 12 809 c 0
 12 1251 346 1638 803 1638 c 0
 918 1638 1169 1571 1169 1419 c 0
 1169 1378 1149 1290 1092 1290 c 0
 1072 1290 1049 1297 1026 1303 c 0
 1001 1311 977 1321 950 1329 c 0
 895 1349 836 1368 770 1368 c 0
 721 1368 672 1362 625 1350 c 0
 435 1301 242 990 242 797 c 0
 242 502 481 244 780 244 c 0
 872 244 953 272 1012 344 c 0
 1059 401 1133 557 1133 629 c 0
 1133 684 1075 692 1026 692 c 0
 965 692 903 680 842 680 c 0
 731 680 692 729 692 838 c 0
 692 908 1026 922 1073 922 c 0
 1116 922 1219 924 1260 901 c 0
 1280 891 1342 844 1350 819 c 0
 1356 792 1360 760 1362 725 c 2
 1362 631 l 2
 1362 248 1175 6 784 6 c 0
EndSplineSet
Validated: 33
EndChar

StartChar: H
Encoding: 72 72 41
Width: 1482
GlyphClass: 2
Flags: HMW
HStem: 0 43G 817 174 1602 41G
VStem: 289 250 1122 274 1141 279 1165 215
LayerCount: 2
Fore
SplineSet
1392 1104 m 0xf4
 1384 1043 1382 930 1382 815 c 0
 1382 698 1384 582 1384 510 c 0
 1384 438 1397 367 1397 295 c 0
 1397 201 1386 -2 1247 -2 c 0
 1126 -2 1122 248 1122 326 c 0xf8
 1122 414 1128 504 1134 592 c 0
 1136 643 1165 692 1165 745 c 0xf2
 1165 798 1134 817 1081 817 c 0
 989 817 578 779 547 713 c 0
 529 676 526 627 526 584 c 0
 526 463 551 344 551 223 c 0
 551 125 530 2 401 2 c 0
 268 2 266 221 266 307 c 0
 266 397 276 485 282 575 c 0
 298 786 282 1008 282 1221 c 0
 282 1252 283 1346 293 1434 c 0
 303 1520 326 1606 379 1606 c 0
 424 1606 559 1584 559 1518 c 0
 559 1403 540 1286 540 1169 c 0
 540 1132 541 1104 543 1079 c 0
 543 1056 547 1038 555 1026 c 0
 571 1001 604 993 680 993 c 0
 815 993 987 1003 1118 1038 c 0
 1159 1050 1161 1102 1161 1141 c 0
 1161 1237 1141 1334 1141 1430 c 0
 1141 1526 1159 1645 1286 1645 c 0
 1411 1645 1421 1472 1421 1386 c 0
 1421 1290 1404 1198 1392 1104 c 0xf4
EndSplineSet
Validated: 33
EndChar

StartChar: I
Encoding: 73 73 42
Width: 413
GlyphClass: 2
Flags: HMW
HStem: -2 43G<118 232> 1606 41G
VStem: 55 248<191 366> 102 250<1164 1534>
LayerCount: 2
Fore
SplineSet
336 1288 m 0xd0
 313 1007 323 725 307 446 c 0
 303 376 303 310 303 240 c 0
 303 144 289 -2 176 -2 c 0
 59 -2 55 256 55 342 c 0xe0
 55 389 57 434 61 481 c 0
 81 749 102 1030 102 1298 c 0
 102 1359 98 1424 98 1487 c 0
 98 1593 125 1649 223 1649 c 0
 317 1649 352 1585 352 1483 c 0
 352 1417 340 1351 336 1288 c 0xd0
EndSplineSet
Validated: 1
EndChar

StartChar: J
Encoding: 74 74 43
Width: 1228
GlyphClass: 2
Flags: HMW
HStem: 6 209 1391 229 1425 213<971 1006>
VStem: 725 233<1034 1079 977 1113>
LayerCount: 2
Fore
SplineSet
1149 1417 m 0xd0
 1090 1417 1034 1425 977 1425 c 0
 965 1425 954 1425 944 1423 c 0
 934 1421 928 1417 928 1407 c 0
 928 1356 948 1304 952 1253 c 0
 958 1183 958 1114 958 1044 c 0
 958 909 954 774 950 639 c 0
 938 324 885 8 492 8 c 0
 359 8 78 70 78 252 c 0
 78 297 127 344 172 344 c 0
 188 344 209 336 229 324 c 0
 252 312 274 295 299 279 c 0
 350 246 406 215 467 215 c 0
 594 215 655 287 688 383 c 0
 704 432 711 486 715 541 c 0
 719 594 719 647 719 692 c 0
 719 827 725 967 725 1102 c 0
 725 1125 727 1200 721 1270 c 0
 715 1342 684 1393 659 1395 c 0
 628 1399 596 1399 563 1397 c 0
 528 1395 496 1393 463 1393 c 0
 400 1393 221 1391 221 1483 c 0
 221 1587 273 1610 375 1610 c 0
 432 1610 488 1622 545 1622 c 0
 682 1622 819 1638 956 1638 c 0xb0
 1054 1638 1296 1642 1296 1499 c 0
 1296 1423 1196 1417 1149 1417 c 0xd0
EndSplineSet
Validated: 33
EndChar

StartChar: K
Encoding: 75 75 44
Width: 1173
GlyphClass: 2
Flags: HMW
HStem: -2 43G<181 250 1061 1109> 1579 41G 1583 41G
VStem: 53 225
LayerCount: 2
Fore
SplineSet
1083 -2 m 0x90
 1038 -2 996 41 961 88 c 0
 943 113 923 139 907 162 c 0
 891 187 876 207 864 219 c 0
 827 258 717 385 604 504 c 0
 489 625 379 729 340 729 c 0
 322 729 313 703 309 672 c 0
 305 639 305 602 305 590 c 0
 305 430 338 273 338 115 c 0
 338 47 283 -2 217 -2 c 0
 145 -2 115 52 109 113 c 0
 60 557 69 1037 53 1479 c 0
 51 1542 90 1626 166 1626 c 0
 264 1626 277 1480 279 1343 c 0
 281 1273 279 1202 281 1147 c 0
 283 1088 291 1052 307 1044 c 1
 311 1044 l 2
 319 1044 363 1077 408 1118 c 0
 453 1157 498 1198 512 1210 c 0
 651 1325 772 1477 883 1622 c 1
 934 1622 1008 1612 1008 1544 c 0
 1008 1438 874 1292 745 1165 c 0
 679 1102 614 1042 565 995 c 0
 514 946 485 913 485 901 c 0
 485 854 649 750 688 717 c 0
 811 613 1176 252 1176 92 c 0
 1176 43 1134 -2 1083 -2 c 0x90
EndSplineSet
Validated: 33
EndChar

StartChar: L
Encoding: 76 76 45
Width: 1077
GlyphClass: 2
Flags: HMW
HStem: -8 233<724 743> 1597 41G<232 293>
VStem: 59 254 115 223
LayerCount: 2
Fore
SplineSet
883 4 m 0xd0
 832 -10 770 -8 717 -8 c 0
 654 -8 591 -2 528 0 c 0
 462 2 397 -6 334 -6 c 0
 215 -6 59 10 59 168 c 0xe0
 59 477 70 787 84 1096 c 0
 92 1243 97 1397 117 1544 c 0
 129 1634 196 1638 268 1638 c 0
 317 1638 336 1624 342 1595 c 0
 344 1583 344 1566 342 1548 c 0
 340 1532 338 1512 338 1489 c 0
 338 1401 315 1081 315 993 c 0
 315 749 305 740 287 496 c 0
 283 435 268 342 268 281 c 0
 268 244 284 231 307 229 c 0
 321 227 336 229 352 229 c 0
 368 229 387 231 403 231 c 0
 538 231 658 225 791 225 c 0
 867 225 973 234 973 125 c 0
 973 51 934 18 883 4 c 0xd0
EndSplineSet
Validated: 33
EndChar

StartChar: M
Encoding: 77 77 46
Width: 1339
GlyphClass: 2
Flags: HMW
HStem: 6 43G 999 254 1573 41G
VStem: 39 233<1032 1102 1102 1130 997 1174> 63 238 995 244 1036 201
LayerCount: 2
Fore
SplineSet
1237 846 m 0xea
 1237 795 1241 745 1241 696 c 0
 1241 532 1233 369 1233 207 c 0
 1233 158 1225 10 1159 10 c 0
 1007 10 997 145 997 258 c 0
 997 500 1038 739 1038 983 c 0
 1038 1051 1053 1120 1053 1190 c 0
 1053 1196 1053 1211 1051 1225 c 0
 1049 1235 1046 1245 1038 1245 c 0
 1022 1245 1000 1231 969 1208 c 0
 938 1185 903 1155 864 1124 c 0
 788 1063 698 1001 614 1001 c 0
 548 1001 489 1053 438 1102 c 0
 411 1127 388 1153 365 1171 c 0
 342 1189 321 1200 303 1200 c 0
 287 1200 278 1186 274 1163 c 0
 272 1153 272 1140 272 1130 c 2
 272 1102 l 2
 272 893 303 688 303 479 c 0
 303 444 303 327 291 221 c 0
 281 115 256 8 199 8 c 0
 60 8 49 170 49 270 c 0
 49 364 66 459 66 555 c 0
 66 745 39 935 39 1128 c 0xf4
 39 1218 51 1597 203 1597 c 0
 266 1597 344 1509 418 1425 c 0
 455 1382 489 1340 522 1307 c 0
 555 1274 584 1253 604 1253 c 0
 633 1253 670 1276 715 1311 c 0
 760 1344 809 1389 858 1434 c 0
 956 1524 1061 1616 1133 1616 c 0
 1268 1616 1284 1482 1284 1380 c 0
 1284 1202 1237 1024 1237 846 c 0xea
EndSplineSet
Validated: 1
EndChar

StartChar: N
Encoding: 78 78 47
Width: 1179
GlyphClass: 2
Flags: HMW
HStem: -8 43G<160 251> 1128 387 1599 41G
VStem: 51 223 70 258 920 221 956 209
LayerCount: 2
Fore
SplineSet
975 -6 m 0xe0
 828 -6 686 311 639 424 c 0
 598 518 311 1130 258 1130 c 0
 250 1130 254 1092 254 1090 c 0
 254 949 285 811 285 672 c 0
 285 525 307 378 307 231 c 0
 307 163 299 -8 203 -8 c 0
 117 -8 49 112 49 186 c 0
 49 505 33 826 33 1145 c 0
 33 1225 33 1516 168 1516 c 0
 383 1516 761 780 829 592 c 0
 833 580 852 524 872 471 c 0
 892 420 914 369 928 369 c 0
 934 369 934 383 934 397 c 0
 936 411 936 428 936 430 c 0
 936 573 903 719 901 860 c 2
 899 1141 l 2
 899 1266 895 1403 911 1528 c 0
 923 1616 1001 1642 1075 1642 c 0
 1112 1642 1127 1570 1133 1507 c 0
 1139 1439 1139 1368 1139 1350 c 0
 1139 1180 1120 1012 1120 844 c 0
 1120 697 1145 553 1145 408 c 0
 1145 304 1145 -6 975 -6 c 0xe0
EndSplineSet
Validated: 33
EndChar

StartChar: O
Encoding: 79 79 48
Width: 1232
GlyphClass: 2
Flags: HMW
HStem: -16 238 1395 246 1599 41G
VStem: 6 223 1010 199
LayerCount: 2
Fore
SplineSet
776 1350 m 0x98
 747 1375 672 1397 635 1397 c 0
 612 1397 557 1370 537 1358 c 0
 332 1235 249 878 233 653 c 2
 231 625 l 2
 219 439 401 221 596 221 c 0
 823 221 1010 557 1010 764 c 0
 1010 893 874 1272 776 1350 c 0x98
997 197 m 0
 911 72 799 -14 641 -14 c 0
 295 -14 6 366 6 692 c 0
 6 1057 232 1562 627 1638 c 0
 641 1640 654 1642 666 1642 c 0
 996 1642 1210 1014 1210 750 c 0
 1210 562 1101 351 997 197 c 0
EndSplineSet
Validated: 33
EndChar

StartChar: P
Encoding: 80 80 49
Width: 1058
GlyphClass: 2
Flags: HMW
HStem: 0 43G<106 199> 600 203 1415 217
VStem: 68 199 848 227
LayerCount: 2
Fore
SplineSet
635 1413 m 0
 590 1415 543 1417 498 1417 c 0
 457 1417 420 1417 391 1415 c 0
 360 1413 337 1407 319 1399 c 0
 284 1381 266 1341 266 1257 c 0
 266 1189 278 879 317 838 c 0
 346 809 393 805 434 805 c 0
 633 805 850 867 850 1100 c 0
 850 1223 772 1407 635 1413 c 0
893 717 m 0
 743 584 532 602 350 602 c 0
 291 602 287 571 287 524 c 2
 287 475 l 2
 287 426 293 309 281 203 c 0
 271 99 238 0 160 0 c 0
 54 0 49 172 49 238 c 0
 49 439 70 641 70 846 c 0
 70 1071 61 1299 61 1526 c 0
 61 1624 481 1632 555 1632 c 0
 852 1632 1077 1442 1077 1137 c 0
 1077 979 1010 821 893 717 c 0
EndSplineSet
Validated: 33
EndChar

StartChar: Q
Encoding: 81 81 50
Width: 1366
GlyphClass: 2
Flags: HMW
HStem: -27 205 1407 229
VStem: 49 207 1098 197
LayerCount: 2
Fore
SplineSet
1098 850 m 0
 1090 901 1081 950 1073 995 c 0
 1065 1042 1054 1085 1038 1124 c 0
 1007 1204 956 1274 860 1329 c 0
 797 1366 733 1409 657 1409 c 0
 460 1409 295 1147 268 967 c 0
 260 918 256 868 256 817 c 0
 256 549 367 180 686 180 c 0
 772 180 852 211 909 274 c 1
 843 329 698 459 698 557 c 0
 698 594 735 637 774 637 c 0
 823 637 877 586 922 537 c 0
 945 512 965 487 983 469 c 0
 1003 451 1018 438 1028 438 c 0
 1079 438 1100 770 1100 825 c 0
 1100 831 1100 842 1098 850 c 0
1266 -25 m 0
 1227 -25 1184 20 1149 63 c 0
 1131 83 1114 107 1100 121 c 0
 1088 135 1079 147 1075 147 c 2
 1069 147 l 1
 1042 127 1018 105 995 82 c 0
 970 59 944 39 911 25 c 0
 835 -8 744 -25 662 -25 c 0
 224 -25 51 464 51 829 c 0
 51 1189 217 1638 647 1638 c 0
 661 1638 676 1638 690 1636 c 0
 774 1626 1014 1510 1069 1444 c 0
 1237 1247 1294 1036 1294 778 c 0
 1294 653 1270 533 1223 418 c 0
 1213 391 1200 365 1186 338 c 0
 1186 336 1184 334 1182 332 c 2
 1178 326 l 2
 1176 322 1176 319 1176 315 c 0
 1176 307 1186 290 1206 270 c 0
 1226 250 1253 226 1280 199 c 0
 1333 148 1391 84 1391 29 c 0
 1391 -16 1293 -25 1266 -25 c 0
EndSplineSet
Validated: 1
EndChar

StartChar: R
Encoding: 82 82 51
Width: 1210
GlyphClass: 2
Flags: HMW
HStem: -2 43G 690 190 1434 195 1581 41G
VStem: 66 195 883 209
LayerCount: 2
Fore
SplineSet
629 1395 m 0xdc
 547 1415 463 1436 379 1436 c 0
 318 1436 288 1424 276 1399 c 0
 268 1387 266 1372 264 1352 c 0
 262 1334 262 1311 262 1284 c 0
 262 1157 277 1030 293 905 c 1
 318 882 387 883 422 883 c 0
 578 883 885 957 885 1145 c 0
 885 1303 764 1362 629 1395 c 0xdc
1139 -35 m 0
 1092 -35 1031 12 965 80 c 0
 899 150 826 240 752 330 c 0
 602 514 452 692 354 692 c 0
 295 692 266 653 266 596 c 0
 266 475 301 356 301 233 c 0
 301 147 289 0 166 0 c 0
 105 0 74 78 72 127 c 0
 56 483 66 840 66 1196 c 0
 66 1294 45 1391 45 1489 c 0
 45 1628 295 1628 391 1628 c 0xec
 467 1628 542 1624 616 1624 c 0
 860 1624 1092 1379 1092 1139 c 0
 1092 1016 1028 901 936 825 c 0
 920 813 893 803 864 795 c 0
 837 787 807 780 776 772 c 0
 721 760 674 752 674 729 c 0
 674 690 811 543 952 393 c 0
 1022 317 1092 243 1143 184 c 0
 1196 125 1233 77 1233 57 c 0
 1233 16 1180 -35 1139 -35 c 0
EndSplineSet
Validated: 33
EndChar

StartChar: S
Encoding: 83 83 52
Width: 1044
GlyphClass: 2
Flags: HMW
HStem: -12 217 1407 217
VStem: 86 225 846 209
LayerCount: 2
Fore
SplineSet
440 -8 m 0
 286 -8 -27 209 -27 379 c 0
 -27 440 47 455 92 455 c 0
 147 455 190 416 223 375 c 0
 235 361 248 346 260 330 c 0
 309 269 358 209 434 209 c 0
 627 209 805 354 805 557 c 0
 805 645 725 690 625 713 c 0
 525 738 410 740 342 748 c 0
 168 768 45 942 45 1110 c 0
 45 1339 186 1630 446 1630 c 0
 608 1630 965 1530 965 1319 c 0
 965 1278 895 1210 854 1210 c 0
 827 1210 801 1225 774 1243 c 0
 747 1261 719 1288 690 1313 c 0
 631 1364 568 1411 496 1411 c 0
 365 1411 272 1223 272 1106 c 0
 272 1061 284 1014 317 983 c 0
 335 967 380 954 446 942 c 0
 509 932 588 919 666 903 c 0
 820 870 974 813 999 682 c 0
 1009 633 1014 581 1014 532 c 0
 1014 190 768 -8 440 -8 c 0
EndSplineSet
Validated: 1
EndChar

StartChar: T
Encoding: 84 84 53
Width: 1312
GlyphClass: 2
Flags: HMW
HStem: -14 43G 1401 242 1401 256
VStem: 549 205
LayerCount: 2
Fore
SplineSet
1137 1413 m 0xd0
 1092 1405 1044 1401 1001 1401 c 0
 956 1399 918 1401 887 1401 c 0
 877 1401 850 1403 825 1401 c 0xb0
 798 1397 778 1392 774 1382 c 0
 762 1359 758 1276 756 1188 c 0
 754 1102 754 1012 754 977 c 0
 754 920 745 864 745 807 c 2
 745 778 l 2
 745 594 774 411 774 229 c 2
 774 164 l 2
 772 105 764 -12 680 -12 c 0
 600 -12 565 61 551 145 c 0
 543 186 539 231 537 272 c 2
 537 373 l 2
 537 576 551 776 551 977 c 0
 551 1028 544 1379 528 1393 c 0
 526 1395 516 1395 512 1395 c 0
 414 1395 315 1376 215 1376 c 0
 168 1376 25 1378 25 1452 c 0
 25 1493 63 1536 88 1561 c 0
 133 1608 340 1624 555 1632 c 0
 661 1636 772 1638 868 1642 c 0
 962 1646 1042 1651 1087 1659 c 0
 1099 1661 1112 1663 1126 1663 c 0
 1177 1663 1298 1637 1298 1563 c 0
 1298 1469 1223 1431 1137 1413 c 0xd0
EndSplineSet
Validated: 33
EndChar

StartChar: U
Encoding: 85 85 54
Width: 1269
GlyphClass: 2
Flags: HMW
HStem: -29 258 1593 41G<941 1096>
VStem: 20 219 975 250
LayerCount: 2
Fore
SplineSet
930 45 m 0
 832 0 719 -29 608 -29 c 0
 227 -29 43 315 43 657 c 0
 43 708 47 758 53 809 c 0
 63 881 73 1075 104 1251 c 0
 135 1425 187 1591 287 1591 c 0
 365 1591 379 1495 379 1440 c 0
 379 1358 360 1280 340 1204 c 0
 317 1128 295 1053 285 975 c 0
 271 879 262 780 262 682 c 0
 262 426 338 231 627 231 c 0
 795 231 881 345 928 492 c 0
 951 566 965 647 975 725 c 0
 983 803 989 879 993 940 c 0
 995 956 997 973 997 991 c 0
 997 1171 895 1334 895 1516 c 0
 895 1584 899 1634 983 1634 c 0
 1208 1634 1247 1096 1247 938 c 0
 1247 725 1149 147 930 45 c 0
EndSplineSet
Validated: 1
EndChar

StartChar: V
Encoding: 86 86 55
Width: 1300
GlyphClass: 2
Flags: HMW
HStem: 1583 41G 1591 41G<152 206>
VStem: 70 1161
LayerCount: 2
Fore
SplineSet
1098 985 m 0xa0
 1028 754 949 510 924 408 c 0
 918 377 909 334 895 287 c 0
 883 242 864 190 844 143 c 0
 803 51 745 -31 659 -31 c 0
 573 -31 508 67 485 139 c 0
 442 274 70 1456 70 1485 c 0
 70 1557 111 1632 193 1632 c 0x60
 220 1632 249 1626 274 1612 c 0
 315 1592 360 1454 397 1313 c 0
 434 1172 467 1022 479 973 c 0
 520 801 618 647 657 475 c 0
 659 471 662 458 666 446 c 0
 668 438 672 430 678 430 c 0
 713 430 754 610 760 639 c 0
 801 819 858 993 903 1171 c 0
 917 1230 932 1344 963 1442 c 0
 994 1538 1042 1626 1128 1626 c 0
 1187 1626 1233 1560 1233 1507 c 0
 1233 1441 1170 1218 1098 985 c 0xa0
EndSplineSet
Validated: 1
EndChar

StartChar: W
Encoding: 87 87 56
Width: 1591
GlyphClass: 2
Flags: HMW
HStem: -20 43G<463 532> -10 43G<1041 1105> 1593 41G<1339 1459>
VStem: 68 1493
LayerCount: 2
Fore
SplineSet
1530 1407 m 0xb0
 1524 1376 1515 1346 1507 1317 c 0
 1419 1008 1321 702 1251 389 c 0
 1241 338 1233 278 1219 219 c 0
 1207 162 1188 102 1163 55 c 0
 1149 24 1126 -10 1083 -10 c 0x70
 999 -10 942 88 895 182 c 0
 870 229 849 276 829 311 c 0
 809 348 788 369 772 369 c 0
 760 369 747 344 731 309 c 0
 715 274 695 225 670 176 c 0
 625 82 568 -20 498 -20 c 0
 428 -20 387 84 369 141 c 0
 363 164 356 185 352 199 c 0
 278 443 47 1246 47 1473 c 0
 47 1528 53 1632 137 1632 c 0
 164 1632 190 1622 215 1610 c 0
 276 1579 338 1319 391 1049 c 0
 444 777 483 485 514 395 c 2
 516 389 l 2
 518 385 520 377 526 377 c 0
 534 377 547 393 567 426 c 0
 585 457 606 498 629 539 c 0
 674 617 727 702 778 702 c 0
 821 702 875 627 920 555 c 0
 945 518 967 482 985 455 c 0
 1005 426 1020 412 1026 412 c 0
 1028 412 1030 414 1032 418 c 2
 1036 426 l 2
 1054 463 1061 510 1069 557 c 0
 1075 602 1079 649 1087 692 c 0
 1110 831 1266 1634 1413 1634 c 0
 1505 1634 1540 1583 1540 1499 c 0
 1540 1468 1536 1438 1530 1407 c 0xb0
EndSplineSet
Validated: 1
EndChar

StartChar: X
Encoding: 88 88 57
Width: 1411
GlyphClass: 2
Flags: HMW
HStem: -29 43G 8 43G<1143 1212> 1593 41G
VStem: 74 1288 535 358
LayerCount: 2
Fore
SplineSet
1126 1147 m 0xb0
 1067 1081 1010 1018 967 965 c 0
 922 910 895 867 895 838 c 0
 895 748 994 596 1098 455 c 0
 1149 383 1202 317 1241 260 c 0
 1278 203 1305 156 1305 129 c 0
 1305 80 1237 8 1188 8 c 0x70
 1098 8 1006 163 926 313 c 0
 885 389 846 465 811 522 c 0
 774 579 745 614 725 614 c 0
 694 614 659 577 618 516 c 0
 579 457 536 377 489 297 c 0
 395 137 283 -27 150 -27 c 0
 101 -27 76 14 76 57 c 0
 76 170 192 326 305 469 c 0
 362 541 422 611 465 672 c 0
 508 733 535 782 535 815 c 0xa8
 535 921 428 1059 322 1182 c 0
 267 1245 213 1303 172 1352 c 0
 133 1401 104 1444 104 1473 c 0
 104 1536 162 1575 221 1575 c 0
 317 1575 579 1243 614 1155 c 0
 632 1112 660 1042 713 1042 c 0
 754 1042 797 1078 840 1133 c 0
 863 1162 882 1194 905 1227 c 0
 928 1262 950 1300 973 1337 c 0
 1063 1482 1159 1636 1270 1636 c 0
 1323 1636 1364 1613 1364 1556 c 0
 1364 1427 1243 1280 1126 1147 c 0xb0
EndSplineSet
Validated: 1
EndChar

StartChar: Y
Encoding: 89 89 58
Width: 1269
GlyphClass: 2
Flags: HMW
HStem: -23 43G<594 648> 1591 41G<136 201 1087 1154>
VStem: 502 201
LayerCount: 2
Fore
SplineSet
1110 1305 m 0
 1044 1207 973 1108 942 1057 c 0
 928 1034 874 963 827 895 c 0
 778 823 733 757 731 741 c 0
 708 612 702 473 702 342 c 0
 702 250 719 155 719 63 c 0
 719 6 674 -23 623 -23 c 0
 566 -23 502 12 502 78 c 2
 504 705 l 2
 504 754 477 815 434 887 c 0
 393 959 336 1038 281 1118 c 0
 170 1278 55 1442 55 1561 c 0
 55 1610 119 1632 154 1632 c 0
 248 1632 348 1456 434 1288 c 0
 477 1202 518 1116 553 1053 c 0
 588 987 615 948 631 948 c 0
 645 948 676 987 715 1053 c 0
 752 1116 799 1202 846 1288 c 0
 940 1456 1046 1632 1128 1632 c 0
 1179 1632 1231 1605 1231 1546 c 0
 1231 1499 1173 1401 1110 1305 c 0
EndSplineSet
Validated: 1
EndChar

StartChar: Z
Encoding: 90 90 59
Width: 1101
GlyphClass: 2
Flags: HMW
HStem: -16 270 10 244<624 845> 1411 223<587 731>
VStem: 33 272<79 286> 33 1008 731 309
LayerCount: 2
Fore
SplineSet
672 879 m 0x68
 580 744 490 611 420 500 c 0
 350 389 305 305 305 266 c 0xb4
 305 235 365 238 385 238 c 0
 481 238 576 254 672 254 c 0
 746 254 1014 256 1014 139 c 0
 1014 57 973 24 918 14 c 0
 891 8 860 10 829 10 c 0
 798 12 768 14 741 14 c 0
 591 14 443 -14 293 -14 c 0
 182 -14 33 7 33 152 c 0
 33 289 155 458 227 569 c 0
 350 753 438 959 567 1139 c 0
 596 1180 733 1354 733 1391 c 0
 733 1409 655 1411 643 1411 c 0
 530 1411 422 1368 311 1348 c 0
 274 1340 238 1335 201 1335 c 0
 135 1335 84 1416 84 1475 c 0
 84 1559 213 1598 348 1616 c 0
 485 1634 637 1634 690 1634 c 0
 772 1634 1040 1651 1040 1518 c 0
 1040 1422 854 1147 672 879 c 0x68
EndSplineSet
Validated: 33
EndChar

StartChar: bracketleft
Encoding: 91 91 60
Width: 522
GlyphClass: 2
Flags: HMW
HStem: -53 209 1475 211
VStem: 61 195
LayerCount: 2
Fore
SplineSet
451 1473 m 0
 428 1473 404 1473 375 1475 c 0
 348 1475 322 1472 295 1462 c 0
 250 1442 240 1327 242 1194 c 0
 244 1065 256 925 256 866 c 0
 252 684 248 540 238 393 c 0
 236 344 241 172 266 156 c 0
 289 142 328 146 371 152 c 0
 391 154 412 158 430 156 c 0
 448 156 465 153 477 145 c 0
 522 112 563 32 516 -25 c 0
 496 -48 444 -51 391 -51 c 0
 338 -51 281 -47 244 -47 c 0
 113 -47 67 41 55 152 c 0
 49 207 53 269 55 328 c 0
 59 389 63 447 63 498 c 0
 63 795 68 1020 74 1262 c 0
 76 1334 68 1431 76 1513 c 0
 84 1595 108 1665 180 1675 c 0
 303 1691 532 1710 532 1587 c 0
 532 1495 500 1475 451 1473 c 0
EndSplineSet
Validated: 33
EndChar

StartChar: backslash
Encoding: 92 92 61
Width: 845
GlyphClass: 2
Flags: HMW
HStem: -20 43G
VStem: 80 778
LayerCount: 2
Fore
SplineSet
727 -6 m 0
 682 21 628 127 612 178 c 0
 497 551 361 889 203 1235 c 0
 185 1276 150 1337 123 1403 c 0
 94 1469 74 1538 80 1593 c 0
 86 1648 108 1673 180 1667 c 1
 246 1620 293 1534 334 1440 c 0
 375 1344 405 1239 440 1151 c 0
 536 903 658 631 760 373 c 0
 776 332 801 278 821 227 c 0
 841 176 858 129 858 100 c 0
 858 -31 774 -33 727 -6 c 0
EndSplineSet
Validated: 33
EndChar

StartChar: bracketright
Encoding: 93 93 62
Width: 583
GlyphClass: 2
Flags: HMW
HStem: -41 201
VStem: 350 186
LayerCount: 2
Fore
SplineSet
539 465 m 0
 541 383 551 266 541 166 c 0
 533 66 502 -21 416 -39 c 0
 393 -43 373 -45 350 -43 c 0
 327 -41 303 -39 272 -41 c 0
 249 -41 221 -43 188 -45 c 0
 155 -47 123 -47 92 -43 c 0
 31 -33 -15 0 14 88 c 0
 26 129 98 152 131 162 c 0
 141 164 158 162 174 162 c 0
 192 160 213 158 233 158 c 0
 276 154 316 156 330 170 c 0
 348 188 352 260 354 340 c 0
 354 418 350 497 350 524 c 0
 354 633 358 744 348 924 c 0
 346 979 348 1045 350 1100 c 0
 350 1145 360 1231 362 1309 c 0
 366 1389 362 1459 348 1473 c 0
 323 1498 287 1499 242 1499 c 0
 197 1497 149 1491 104 1503 c 0
 38 1519 10 1566 61 1632 c 0
 108 1691 233 1686 303 1686 c 0
 463 1686 529 1652 549 1556 c 0
 559 1509 561 1448 557 1368 c 0
 555 1290 547 1194 545 1077 c 0
 543 895 537 647 539 465 c 0
EndSplineSet
Validated: 33
EndChar

StartChar: asciicircum
Encoding: 94 94 63
Width: 880
GlyphClass: 2
Flags: HMW
HStem: 1579 41G
VStem: 78 809
LayerCount: 2
Fore
SplineSet
793 1026 m 0
 744 1036 701 1104 674 1143 c 0
 658 1166 636 1188 616 1208 c 0
 598 1228 579 1248 565 1264 c 0
 559 1270 549 1285 539 1303 c 0
 529 1321 516 1342 504 1362 c 0
 481 1399 461 1436 451 1432 c 0
 431 1424 381 1351 367 1331 c 0
 344 1298 316 1257 289 1210 c 0
 269 1171 256 1131 240 1090 c 0
 224 1051 203 1018 168 1004 c 0
 123 986 88 1012 80 1049 c 0
 70 1106 123 1219 152 1262 c 0
 201 1334 254 1423 307 1501 c 0
 340 1548 416 1651 475 1612 c 0
 512 1587 560 1518 580 1487 c 0
 603 1450 630 1409 657 1376 c 0
 692 1333 739 1301 782 1266 c 0
 823 1231 863 1196 881 1147 c 0
 906 1086 869 1012 793 1026 c 0
EndSplineSet
Validated: 33
EndChar

StartChar: underscore
Encoding: 95 95 64
Width: 782
GlyphClass: 2
Flags: HMW
HStem: -139 139
VStem: -76 913
LayerCount: 2
Fore
SplineSet
739 -137 m 0
 667 -147 569 -141 512 -141 c 0
 430 -139 285 -145 201 -137 c 0
 166 -135 106 -135 53 -131 c 0
 2 -127 -51 -119 -61 -94 c 0
 -86 -41 -76 -18 -47 -10 c 0
 -35 -8 -18 -8 -2 -8 c 0
 14 -8 29 -10 43 -8 c 0
 219 8 416 10 584 0 c 0
 621 -2 674 -4 721 -10 c 0
 766 -16 809 -25 821 -41 c 0
 868 -102 809 -129 739 -137 c 0
EndSplineSet
Validated: 33
EndChar

StartChar: a
Encoding: 97 97 65
Width: 1126
GlyphClass: 2
Flags: HMW
HStem: -164 221
LayerCount: 2
Fore
SplineSet
898 844 m 0
 931 758 908 656 914 560 c 0
 924 419 961 280 1014 181 c 1
 1079 171 1090 66 1038 25 c 1
 888 -14 829 192 790 328 c 1
 666 173 544 16 263 17 c 1
 202 36 140 67 99 125 c 0
 66 172 55 245 55 300 c 0
 54 622 231 991 563 1000 c 0
 699 1004 791 939 850 860 c 0
 865 853 891 859 898 844 c 0
423 804 m 0
 267 704 174 416 231 205 c 1
 340 123 497 231 563 297 c 0
 648 381 737 509 750 612 c 0
 756 659 740 731 750 784 c 1
 677 857 519 865 423 804 c 0
EndSplineSet
Validated: 33
EndChar

StartChar: b
Encoding: 98 98 66
Width: 1024
GlyphClass: 2
Flags: HMW
HStem: -3 65 448 76
VStem: -222 71 7 79 55 90
LayerCount: 2
Fore
SplineSet
236 819 m 1xe0
 307 911 417 1011 579 1009 c 0
 720 1007 790 941 866 860 c 1
 891 806 924 750 937 685 c 0
 965 546 893 401 848 300 c 1
 816 275 800 239 766 211 c 0
 644 110 406 108 266 192 c 1
 256 164 231 159 202 151 c 0
 90 121 86 346 79 494 c 0
 73 626 83 767 94 901 c 0
 110 1099 60 1304 109 1427 c 1
 131 1427 155 1447 180 1442 c 0
 224 1433 232 1323 236 1274 c 0
 247 1135 238 936 236 819 c 1xe0
508 274 m 0
 544 274 622 293 646 308 c 0
 797 403 853 731 684 834 c 0
 652 853 565 871 519 856 c 0
 342 800 274 605 277 360 c 1
 338 312 414 273 508 274 c 0
EndSplineSet
Validated: 33
EndChar

StartChar: c
Encoding: 99 99 67
Width: 1206
GlyphClass: 2
Flags: HMW
HStem: -6 78 460 93
VStem: 83 72
LayerCount: 2
Fore
SplineSet
917 905 m 1
 805 941 764 1046 622 978 c 0
 547 942 419 813 383 717 c 0
 347 621 346 490 387 397 c 0
 415 334 482 267 588 278 c 0
 690 288 785 331 883 363 c 0
 922 376 962 389 981 380 c 0
 1006 368 1028 306 1023 273 c 0
 1013 214 906 197 853 179 c 0
 763 147 675 107 567 107 c 0
 320 108 174 332 182 581 c 0
 186 717 247 818 302 905 c 0
 385 1036 517 1124 673 1166 c 0
 703 1174 777 1163 810 1149 c 0
 845 1134 898 1104 925 1076 c 0
 946 1054 984 1008 981 974 c 0
 977 934 947 934 917 905 c 1
EndSplineSet
Validated: 33
EndChar

StartChar: d
Encoding: 100 100 68
Width: 1024
GlyphClass: 2
Flags: HMW
HStem: -60 181 1080 181
VStem: -728 204 -696 212 62 209
LayerCount: 2
Fore
SplineSet
864 1556 m 1xc8
 886 1484 892 1402 899 1317 c 0
 907 1208 908 1078 899 973 c 0
 891 879 889 774 895 684 c 0
 907 515 954 353 918 201 c 0
 912 194 894 185 883 182 c 0
 862 176 799 177 783 189 c 0
 762 205 769 235 763 263 c 1
 643 193 414 4 238 128 c 0
 174 173 140 241 107 325 c 1
 58 551 140 772 269 931 c 0
 366 1051 583 1111 748 1008 c 1
 781 1167 733 1407 779 1553 c 1
 794 1567 843 1561 864 1556 c 1xc8
744 637 m 0
 739 725 702 868 636 900 c 1
 573 914 500 919 451 892 c 0
 343 833 239 627 234 491 c 0
 230 390 271 253 350 236 c 0
 376 230 412 239 439 247 c 0
 555 282 652 377 748 433 c 1
 737 499 748 569 744 637 c 0
EndSplineSet
Validated: 33
EndChar

StartChar: e
Encoding: 101 101 69
Width: 1024
GlyphClass: 2
Flags: HMW
HStem: -86 43G -75 106 219 85 453 111 463 101
VStem: -80 80 -68 77
LayerCount: 2
Fore
SplineSet
250 499 m 1x20
 246 377 288 274 382 234 c 0
 498 185 662 239 752 288 c 0
 786 306 812 348 845 349 c 0
 883 350 943 296 950 270 c 0
 959 240 932 198 906 177 c 0
 864 143 793 119 730 98 c 0
 597 54 432 16 289 94 c 0
 206 139 160 207 109 288 c 1
 19 476 108 754 223 895 c 0
 287 974 408 1053 483 1072 c 0
 595 1100 742 1059 823 997 c 0
 935 912 977 733 928 583 c 1
 870 499 744 520 598 508 c 0
 464 497 348 483 250 499 c 1x20
686 878 m 0
 501 976 337 787 285 658 c 1
 453 671 604 686 774 688 c 1
 785 780 731 854 686 878 c 0
EndSplineSet
Validated: 33
EndChar

StartChar: f
Encoding: 102 102 70
Width: 1107
GlyphClass: 2
Flags: HMW
HStem: -606 43G 150 238 162 195 805 242 815 231
VStem: -864 236 -837 250
LayerCount: 2
Fore
SplineSet
548 1468 m 1x80
 494 1427 499 1342 486 1268 c 0
 473 1192 464 1113 463 1035 c 1
 508 1044 545 1042 582 1054 c 0
 633 1070 658 1099 715 1059 c 0
 757 1030 786 965 743 916 c 0
 691 856 558 866 468 849 c 1
 447 620 518 337 482 107 c 0
 478 79 461 50 444 26 c 1
 412 19 372 21 334 21 c 1
 272 94 301 226 301 350 c 0
 301 525 263 671 272 859 c 1
 215 877 117 852 82 892 c 1
 39 1040 135 1066 272 1054 c 1
 288 1272 302 1478 415 1616 c 1
 463 1651 526 1664 591 1659 c 1
 661 1629 728 1583 820 1535 c 0
 877 1505 1012 1472 1034 1425 c 0
 1048 1394 996 1292 953 1283 c 0
 900 1272 811 1336 748 1368 c 0
 677 1404 610 1441 548 1468 c 1x80
EndSplineSet
Validated: 33
EndChar

StartChar: g
Encoding: 103 103 71
Width: 1024
GlyphClass: 2
Flags: MW
LayerCount: 2
Fore
SplineSet
798 239 m 1
 773 230 759 201 736 181 c 0
 648 106 512 22 370 20 c 0
 202 18 109 161 102 317 c 0
 93 522 178 724 304 840 c 0
 382 911 491 962 617 923 c 0
 724 890 809 806 852 713 c 1
 930 714 928 612 934 539 c 0
 940 466 940 422 946 371 c 0
 969 186 977 2 926 -148 c 0
 874 -302 750 -393 584 -429 c 0
 466 -455 340 -431 234 -408 c 0
 214 -404 155 -373 135 -359 c 0
 94 -330 18 -221 90 -173 c 0
 101 -166 158 -157 172 -161 c 0
 199 -169 205 -205 225 -223 c 0
 316 -303 585 -291 679 -223 c 0
 707 -202 749 -154 761 -120 c 0
 770 -96 769 -63 778 -33 c 0
 799 41 819 133 798 239 c 1
493 770 m 0
 380 725 256 537 263 350 c 0
 265 303 274 230 308 202 c 0
 363 156 478 206 522 230 c 0
 611 279 710 368 745 457 c 0
 759 493 775 578 757 626 c 0
 746 655 702 683 670 708 c 0
 619 747 569 782 506 770 c 0
 502 769 496 771 493 770 c 0
EndSplineSet
Validated: 33
EndChar

StartChar: h
Encoding: 104 104 72
Width: 1024
GlyphClass: 2
Flags: HMW
HStem: -471 43G 346 174 1130 41G
VStem: -957 250 -124 274 -105 279 -81 215
LayerCount: 2
Fore
SplineSet
288 915 m 1xf0
 367 970 432 1035 559 1033 c 0
 700 1031 858 928 905 792 c 0
 934 710 940 610 940 512 c 0
 940 400 916 266 940 166 c 0
 946 140 966 114 962 96 c 0
 955 59 879 19 853 21 c 0
 795 26 763 113 756 179 c 0
 745 275 765 392 765 494 c 0
 765 601 759 735 699 801 c 0
 638 866 502 873 432 814 c 0
 346 740 276 504 257 359 c 0
 244 262 266 100 200 78 c 0
 166 67 85 97 69 127 c 0
 49 166 75 238 78 302 c 0
 88 533 116 806 117 1072 c 0
 117 1203 123 1331 126 1453 c 0
 128 1520 117 1580 152 1637 c 1
 171 1640 204 1664 227 1659 c 0
 273 1649 281 1571 288 1510 c 0
 303 1374 278 1068 288 915 c 1xf0
EndSplineSet
Validated: 33
EndChar

StartChar: i
Encoding: 105 105 73
Width: 552
GlyphClass: 2
Flags: HMW
HStem: -370 43G 659 43G
VStem: -812 159 -782 160
LayerCount: 2
Fore
SplineSet
179 1338 m 0xc0
 216 1351 307 1295 317 1237 c 0
 333 1146 234 1042 150 1058 c 0
 120 1064 81 1097 70 1120 c 0
 25 1214 102 1311 179 1338 c 0xc0
116 928 m 1
 167 928 227 935 246 903 c 1
 257 684 235 412 266 201 c 1
 324 188 393 255 446 235 c 0
 480 222 481 174 496 134 c 1
 474 85 360 39 292 30 c 0
 229 21 149 64 120 122 c 1
 96 196 79 340 83 498 c 0
 86 626 69 754 78 840 c 0
 82 878 93 908 116 928 c 1
EndSplineSet
Validated: 33
EndChar

StartChar: j
Encoding: 106 106 74
Width: 942
GlyphClass: 2
Flags: HMW
HStem: -1059 209 326 229 360 213
VStem: -463 233
LayerCount: 2
Fore
SplineSet
681 1266 m 1x90
 695 1225 735 1221 748 1185 c 0
 776 1108 681 980 593 998 c 0
 552 1006 505 1058 515 1128 c 0
 528 1220 578 1293 681 1266 c 1x90
748 606 m 1
 752 578 751 556 752 528 c 0
 753 496 766 466 769 433 c 0
 776 348 754 246 769 161 c 1
 753 52 756 -53 699 -132 c 0
 696 -143 702 -145 702 -153 c 0
 666 -204 621 -246 579 -291 c 1
 502 -329 398 -398 289 -351 c 1
 250 -358 203 -313 155 -280 c 0
 129 -262 104 -259 95 -231 c 0
 70 -153 140 -100 211 -135 c 1
 232 -188 288 -207 349 -220 c 1
 414 -211 463 -186 508 -157 c 1
 534 -111 575 -75 596 -19 c 0
 627 63 628 173 628 278 c 0
 628 389 620 503 607 599 c 0
 608 609 600 612 596 617 c 0
 595 693 570 759 575 839 c 0
 583 854 595 866 607 878 c 1
 643 873 671 896 695 878 c 0
 718 861 709 812 716 775 c 0
 720 751 733 725 737 698 c 0
 743 660 737 624 748 606 c 1
EndSplineSet
Validated: 33
EndChar

StartChar: k
Encoding: 107 107 75
Width: 1024
GlyphClass: 2
Flags: HMW
HStem: -412 43G 1169 41G 1174 41G
VStem: -974 225
LayerCount: 2
Fore
SplineSet
207 1588 m 1x90
 249 1453 224 1217 239 1035 c 0
 250 907 248 764 248 613 c 1
 336 682 405 782 502 879 c 0
 561 938 628 1007 698 1072 c 0
 719 1091 744 1129 764 1133 c 0
 793 1139 832 1107 858 1101 c 1
 870 1069 865 1045 871 1023 c 1
 735 866 579 730 444 572 c 1
 557 502 678 422 780 334 c 0
 798 318 816 291 830 272 c 0
 844 253 858 248 867 236 c 0
 908 182 923 89 957 39 c 1
 934 -17 844 -82 793 -6 c 0
 780 13 780 39 772 63 c 0
 709 241 473 357 325 453 c 1
 313 426 286 416 256 408 c 1
 228 306 289 149 231 80 c 0
 200 43 109 63 92 104 c 0
 84 124 87 181 88 211 c 0
 90 273 88 345 88 399 c 0
 87 573 96 729 88 916 c 0
 78 1145 41 1419 100 1588 c 1
 123 1601 184 1600 207 1588 c 1x90
EndSplineSet
Validated: 33
EndChar

StartChar: l
Encoding: 108 108 76
Width: 512
GlyphClass: 2
Flags: HMW
HStem: -418 233 1188 41G
VStem: -1330 254 -1275 223
LayerCount: 2
Fore
SplineSet
332 184 m 1xc0
 382 207 448 155 437 102 c 0
 423 36 311 -3 250 42 c 0
 195 83 181 172 160 259 c 0
 107 480 120 695 149 956 c 0
 159 1047 158 1141 164 1230 c 0
 170 1324 184 1414 190 1496 c 1
 166 1503 155 1478 126 1484 c 0
 95 1490 73 1536 74 1571 c 0
 75 1624 165 1654 209 1660 c 1
 250 1657 280 1643 310 1630 c 1
 320 1607 328 1581 340 1559 c 1
 335 1379 304 1183 295 990 c 0
 283 723 238 416 332 184 c 1xc0
EndSplineSet
Validated: 33
EndChar

StartChar: m
Encoding: 109 109 77
Width: 1433
GlyphClass: 2
Flags: HMW
HStem: -165 43G -66 25 -9 43G
VStem: 460 23 462 24 555 24 559 20
LayerCount: 2
Fore
SplineSet
750 78 m 1xe0
 720 70 689 60 650 61 c 1
 630 82 601 110 596 157 c 0
 571 374 668 684 596 861 c 1
 514 866 478 827 433 795 c 1
 327 600 275 352 263 99 c 1
 234 36 194 0 125 24 c 1
 113 44 79 68 75 99 c 0
 68 148 103 212 108 274 c 0
 120 432 104 645 92 811 c 0
 87 886 66 957 100 1011 c 1
 139 1015 184 1043 213 1028 c 0
 255 1006 256 868 254 824 c 1
 283 843 291 880 317 911 c 0
 398 1009 592 1070 708 991 c 1
 735 959 766 914 771 874 c 1
 833 953 886 1006 971 1032 c 0
 1107 1073 1221 997 1284 907 c 0
 1329 842 1366 743 1358 649 c 0
 1349 536 1280 401 1258 286 c 0
 1253 261 1247 223 1250 199 c 0
 1255 152 1305 123 1296 82 c 0
 1286 36 1216 -7 1167 20 c 0
 1120 46 1092 136 1088 191 c 0
 1081 298 1116 401 1146 486 c 0
 1167 545 1191 616 1192 661 c 0
 1194 756 1136 872 1054 878 c 0
 1005 882 942 834 917 803 c 0
 856 726 839 583 821 453 c 0
 802 317 789 173 750 78 c 1xe0
EndSplineSet
Validated: 33
EndChar

StartChar: n
Encoding: 110 110 78
Width: 1179
GlyphClass: 2
Flags: HMW
HStem: -209 43G 348 190 579 43G
VStem: -46 109 -37 126 379 108 397 102
LayerCount: 2
Fore
SplineSet
903 30 m 1xe0
 823 110 861 264 871 405 c 0
 886 619 875 896 729 963 c 0
 555 1043 444 769 400 661 c 0
 329 486 331 336 318 145 c 0
 315 103 324 60 304 35 c 0
 284 11 186 2 153 30 c 0
 105 71 138 251 140 305 c 0
 148 525 135 829 162 1004 c 1
 194 1018 260 1036 295 1018 c 1
 310 989 316 950 318 908 c 1
 400 1026 483 1155 665 1159 c 0
 778 1162 891 1085 944 1013 c 0
 1110 788 1037 436 1036 163 c 0
 1036 126 1049 81 1031 58 c 0
 1009 30 950 40 903 30 c 1xe0
EndSplineSet
Validated: 33
EndChar

StartChar: o
Encoding: 111 111 79
Width: 1024
GlyphClass: 2
Flags: HMW
HStem: -234 30 -58 31 -32 43G
VStem: 63 28 188 25
LayerCount: 2
Fore
SplineSet
544 1125 m 0x98
 635 1129 699 1075 763 1013 c 0
 801 976 838 942 863 897 c 0
 938 761 970 531 896 358 c 0
 856 264 763 163 672 105 c 0
 598 58 468 7 365 22 c 0
 332 27 279 53 257 67 c 0
 141 143 65 349 92 557 c 0
 108 682 171 826 237 913 c 0
 261 944 279 980 299 1000 c 0
 351 1053 450 1121 544 1125 c 0x98
324 760 m 0
 258 641 228 425 282 295 c 0
 299 254 334 201 386 188 c 0
 465 168 587 233 647 291 c 0
 715 356 776 457 776 569 c 0
 776 769 681 911 552 967 c 0
 548 969 545 963 544 963 c 0
 461 960 353 813 324 760 c 0
EndSplineSet
Validated: 33
EndChar

StartChar: p
Encoding: 112 112 80
Width: 1058
GlyphClass: 2
Flags: HMW
HStem: -2765 43G -2493 92 -2123 98
VStem: -313 90 41 103
LayerCount: 2
Fore
SplineSet
265 143 m 1
 244 -31 246 -250 265 -424 c 1
 252 -454 166 -482 129 -453 c 0
 113 -441 108 -368 103 -335 c 0
 95 -281 86 -252 88 -207 c 0
 89 -185 100 -167 103 -144 c 0
 107 -112 101 -76 103 -41 c 0
 107 65 109 182 117 294 c 0
 126 426 138 548 136 688 c 0
 135 741 133 793 140 843 c 1
 167 874 265 885 265 824 c 1
 326 926 475 996 618 1008 c 0
 708 1015 765 974 832 946 c 1
 881 899 926 849 953 780 c 1
 984 657 971 565 938 430 c 0
 910 317 890 230 832 154 c 0
 796 107 749 86 696 58 c 1
 522 15 387 85 265 143 c 1
497 198 m 0
 555 185 644 182 696 224 c 0
 750 268 775 351 795 430 c 0
 819 525 836 618 821 710 c 0
 808 787 721 864 633 861 c 0
 568 859 521 843 478 824 c 0
 397 788 375 733 313 681 c 1
 256 591 282 431 268 305 c 1
 345 272 415 216 497 198 c 0
EndSplineSet
Validated: 33
EndChar

StartChar: q
Encoding: 113 113 81
Width: 1126
GlyphClass: 2
Flags: HMW
HStem: -3322 201 -1917 225
VStem: -943 203 84 193
LayerCount: 2
Fore
SplineSet
820 840 m 1
 836 851 839 875 855 886 c 1
 894 885 934 887 958 871 c 1
 966 805 963 728 943 660 c 0
 940 650 930 643 928 633 c 0
 918 588 914 533 905 483 c 0
 896 433 878 378 878 337 c 0
 878 318 892 298 889 280 c 0
 886 262 864 245 859 230 c 0
 849 197 845 149 839 107 c 0
 807 -114 844 -348 939 -465 c 1
 977 -423 1068 -490 1070 -530 c 0
 1072 -566 1038 -579 1020 -611 c 1
 872 -664 794 -554 743 -423 c 0
 683 -268 663 -116 686 76 c 1
 458 -53 140 16 72 264 c 0
 15 470 130 672 229 798 c 0
 309 899 404 983 548 998 c 1
 676 987 758 918 820 840 c 1
471 821 m 0
 339 749 191 528 214 333 c 0
 225 239 297 169 409 161 c 0
 549 151 634 219 713 287 c 1
 742 439 765 573 793 725 c 1
 693 760 605 895 471 821 c 0
EndSplineSet
Validated: 33
EndChar

StartChar: r
Encoding: 114 114 82
Width: 1024
GlyphClass: 2
Flags: HMW
HStem: -162 43G 129 80 441 82 503 43G
VStem: -121 82 222 88
LayerCount: 2
Fore
SplineSet
774 893 m 1xcc
 623 918 436 908 357 824 c 1
 285 706 286 524 272 354 c 0
 263 246 250 156 264 60 c 1
 248 44 236 25 219 11 c 1
 185 13 187 14 157 7 c 1
 135 22 114 37 96 56 c 1
 77 166 77 340 92 522 c 0
 100 619 86 747 92 848 c 0
 94 885 99 929 117 942 c 0
 146 963 225 958 243 930 c 1
 322 1048 645 1104 823 1044 c 0
 873 1027 911 999 937 959 c 1
 964 858 887 786 790 852 c 0
 784 865 771 871 774 893 c 1xcc
EndSplineSet
Validated: 33
EndChar

StartChar: s
Encoding: 115 115 83
Width: 921
GlyphClass: 2
Flags: HMW
HStem: -154 20 -26 20
VStem: -300 20 -231 19
LayerCount: 2
Fore
SplineSet
305 24 m 1
 286 36 264 45 239 50 c 1
 183 108 111 168 129 288 c 1
 163 300 196 336 224 328 c 0
 263 317 260 246 290 204 c 0
 324 156 427 158 477 174 c 0
 519 188 567 227 590 248 c 0
 603 260 631 290 638 306 c 0
 666 373 652 482 601 519 c 1
 487 478 342 391 217 464 c 1
 135 539 120 651 162 775 c 0
 174 810 205 847 228 878 c 0
 267 930 380 1011 466 999 c 0
 542 989 668 947 708 885 c 0
 714 876 723 852 722 838 c 0
 719 810 662 762 638 764 c 0
 609 766 606 797 583 812 c 0
 555 830 485 858 429 849 c 0
 359 837 279 749 279 658 c 0
 279 502 463 628 535 651 c 0
 571 662 626 663 653 658 c 0
 705 648 763 579 777 533 c 0
 799 461 805 339 774 259 c 0
 752 203 693 148 642 109 c 0
 583 64 495 17 407 17 c 0
 374 17 341 37 305 24 c 1
EndSplineSet
Validated: 33
EndChar

StartChar: t
Encoding: 116 116 84
Width: 1024
GlyphClass: 2
Flags: HMW
HStem: -588 43G 827 242 827 256
VStem: -477 205
LayerCount: 2
Fore
SplineSet
559 1171 m 1x90
 666 1159 792 1165 888 1142 c 1
 914 1098 929 1008 888 975 c 1
 761 956 644 987 525 980 c 1
 509 834 489 623 501 454 c 0
 507 373 515 239 573 210 c 0
 669 162 827 286 922 253 c 1
 950 214 978 132 936 96 c 0
 915 78 867 71 826 58 c 0
 704 18 523 -6 430 77 c 0
 297 195 298 495 310 731 c 0
 314 806 330 910 334 980 c 1
 240 982 142 979 81 1013 c 1
 51 1045 74 1116 81 1156 c 1
 156 1195 266 1156 368 1171 c 1
 411 1296 394 1592 497 1653 c 0
 517 1665 565 1660 597 1639 c 1
 627 1496 594 1319 559 1171 c 1x90
EndSplineSet
Validated: 33
EndChar

StartChar: u
Encoding: 117 117 85
Width: 1269
GlyphClass: 2
Flags: HMW
HStem: -417 65 -8 43G
VStem: 44 55 285 63
LayerCount: 2
Fore
SplineSet
379 1000 m 1
 403 988 435 983 451 962 c 1
 430 744 333 585 372 319 c 0
 380 267 400 198 440 179 c 0
 472 164 525 167 565 171 c 0
 733 186 886 320 898 485 c 0
 903 560 894 656 879 727 c 0
 867 782 820 884 841 924 c 0
 854 949 915 969 947 958 c 0
 983 946 990 902 1000 860 c 0
 1028 739 1073 580 1042 421 c 0
 1029 355 987 270 943 216 c 0
 857 109 707 34 565 20 c 0
 190 -18 189 374 243 678 c 0
 265 802 288 952 379 1000 c 1
EndSplineSet
Validated: 33
EndChar

StartChar: v
Encoding: 118 118 86
Width: 1024
GlyphClass: 2
Flags: HMW
HStem: 211 43G 213 43G
VStem: -192 251
LayerCount: 2
Fore
SplineSet
193 992 m 1x20
 219 972 222 936 231 908 c 0
 295 698 374 473 452 275 c 1
 562 476 663 792 800 962 c 0
 818 984 833 1000 865 1000 c 0
 896 1000 940 962 945 931 c 0
 951 892 912 866 887 828 c 0
 820 729 775 610 723 496 c 0
 669 378 616 281 567 153 c 0
 542 87 534 39 483 19 c 1
 403 4 383 59 353 134 c 0
 277 326 202 497 140 721 c 0
 123 781 47 922 94 973 c 0
 112 992 162 995 193 992 c 1x20
EndSplineSet
Validated: 33
EndChar

StartChar: w
Encoding: 119 119 87
Width: 1228
GlyphClass: 2
Flags: HMW
HStem: -165 43G -163 43G 184 43G
VStem: 14 322
LayerCount: 2
Fore
SplineSet
123 1000 m 1x30
 149 994 183 995 202 981 c 1
 209 873 228 766 244 656 c 0
 268 496 273 334 323 203 c 1
 376 255 405 345 452 407 c 0
 483 448 542 494 603 471 c 0
 710 430 695 223 792 169 c 1
 931 264 987 476 1003 683 c 0
 1006 725 1011 762 1003 807 c 0
 998 836 975 852 977 875 c 0
 981 911 1054 963 1094 943 c 0
 1148 916 1160 799 1154 702 c 0
 1147 596 1138 479 1109 384 c 0
 1094 335 1061 280 1033 233 c 0
 1004 183 977 130 947 97 c 0
 907 52 841 10 773 18 c 0
 662 31 602 162 557 282 c 1
 487 191 408 -35 244 63 c 1
 161 144 128 339 108 498 c 0
 94 615 78 726 74 811 c 0
 71 887 73 972 123 1000 c 1x30
EndSplineSet
Validated: 33
EndChar

StartChar: x
Encoding: 120 120 88
Width: 1024
GlyphClass: 2
Flags: HMW
HStem: -44 43G -27 43G 701 43G
VStem: -233 592 -21 165
LayerCount: 2
Fore
SplineSet
540 537 m 1x20
 653 432 784 347 881 216 c 0
 898 193 946 134 944 113 c 0
 941 79 865 27 845 30 c 0
 793 38 764 117 734 153 c 0
 652 249 532 334 445 406 c 1
 350 295 260 168 152 82 c 1
 48 96 72 198 124 264 c 0
 130 271 142 273 148 280 c 0
 155 289 157 305 164 315 c 0
 204 373 292 448 326 506 c 1
 282 543 240 588 203 644 c 0
 165 703 108 770 88 854 c 0
 79 894 75 956 88 997 c 1
 108 1009 135 1014 160 1021 c 1
 207 979 212 913 239 862 c 0
 284 776 352 702 417 632 c 1
 516 772 619 909 715 1052 c 1
 768 1086 887 1027 837 945 c 1
 732 815 640 672 540 537 c 1x20
EndSplineSet
Validated: 33
EndChar

StartChar: y
Encoding: 121 121 89
Width: 1269
GlyphClass: 2
Flags: HMW
HStem: -3016 43G -2866 43G
VStem: -420 19
LayerCount: 2
Fore
SplineSet
1079 902 m 1
 1057 731 1130 569 1133 393 c 0
 1138 114 1080 -135 956 -310 c 1
 930 -326 911 -347 890 -367 c 0
 819 -408 687 -445 554 -425 c 0
 467 -412 338 -366 270 -331 c 0
 231 -311 165 -256 151 -228 c 0
 130 -186 126 -100 188 -96 c 0
 231 -93 304 -164 356 -191 c 0
 410 -219 493 -251 554 -261 c 0
 654 -278 750 -269 816 -215 c 1
 918 -90 965 91 964 319 c 1
 895 235 774 107 640 60 c 0
 546 27 427 20 356 89 c 0
 315 129 278 219 262 294 c 0
 253 337 253 389 250 434 c 0
 236 604 275 780 291 927 c 1
 304 960 394 971 418 935 c 0
 457 878 421 704 418 651 c 0
 413 541 412 420 422 347 c 0
 430 284 449 205 500 195 c 0
 558 184 626 230 652 245 c 0
 755 305 894 448 911 610 c 0
 916 660 910 721 911 766 c 0
 912 822 907 883 931 914 c 0
 962 955 1051 948 1079 902 c 1
EndSplineSet
Validated: 33
EndChar

StartChar: z
Encoding: 122 122 90
Width: 1101
GlyphClass: 2
Flags: HMW
HStem: -167 58 -162 53 141 48
VStem: -121 59 -121 218 29 67
LayerCount: 2
Fore
SplineSet
357 201 m 1x20
 491 217 618 238 750 233 c 0
 824 230 892 193 969 192 c 1
 1008 170 996 123 997 75 c 1
 948 6 842 63 758 71 c 0
 717 75 663 76 616 71 c 0
 481 57 321 38 227 18 c 1
 73 23 111 190 171 265 c 0
 193 292 228 316 256 346 c 0
 367 462 489 580 580 703 c 0
 588 710 600 712 608 719 c 0
 633 771 681 801 718 841 c 1
 578 844 369 830 215 821 c 0
 189 820 135 823 118 837 c 0
 104 849 83 924 89 946 c 0
 95 969 120 969 138 987 c 1
 394 992 664 1014 941 991 c 1
 977 973 992 934 1014 902 c 1
 1001 871 999 839 953 825 c 1
 741 636 570 388 361 209 c 0
 362 206 360 205 357 205 c 0
 357 204 357 202 357 201 c 1x20
EndSplineSet
Validated: 33
EndChar

StartChar: bar
Encoding: 124 124 91
Width: 309
GlyphClass: 2
Flags: HMW
HStem: -59 1776
VStem: 74 166
LayerCount: 2
Fore
SplineSet
246 1092 m 0
 242 887 238 620 240 397 c 0
 240 336 246 248 244 170 c 0
 244 92 239 21 219 -10 c 0
 160 -102 86 -53 78 41 c 0
 70 135 57 235 59 315 c 0
 75 790 51 1149 74 1612 c 0
 76 1632 76 1647 78 1659 c 0
 80 1684 88 1696 111 1704 c 0
 121 1708 136 1710 154 1716 c 0
 209 1730 234 1691 246 1634 c 0
 252 1605 254 1571 256 1532 c 2
 256 1413 l 2
 256 1352 248 1141 246 1092 c 0
EndSplineSet
Validated: 33
EndChar

StartChar: section
Encoding: 167 167 92
Width: 958
GlyphClass: 2
Flags: HMW
HStem: 0 147 1004 190 1604 41G
VStem: 74 219 147 180 731 201 745 115
LayerCount: 2
Fore
SplineSet
512 1004 m 0xea
 444 998 354 909 338 860 c 0
 299 749 420 596 481 584 c 0
 602 557 770 737 725 897 c 0
 709 950 600 1014 512 1004 c 0xea
782 49 m 0
 745 31 709 18 672 12 c 0
 637 6 605 4 578 0 c 0
 420 -25 140 77 150 274 c 0
 152 340 224 477 326 373 c 0
 332 365 334 356 332 346 c 0
 332 336 328 325 326 315 c 0
 320 295 314 274 322 264 c 0
 445 108 625 125 717 225 c 0
 750 260 760 355 713 406 c 0
 701 418 668 414 623 406 c 0
 603 402 579 397 559 393 c 0
 539 391 518 389 504 391 c 0
 277 424 180 656 164 719 c 0
 127 860 166 963 193 1024 c 0
 201 1040 183 1065 154 1092 c 0
 140 1104 127 1116 115 1128 c 0
 103 1138 92 1151 90 1159 c 0
 22 1331 203 1620 436 1645 c 0
 520 1653 645 1626 729 1563 c 0
 754 1545 811 1482 838 1427 c 0
 867 1370 866 1313 770 1309 c 0
 643 1303 627 1466 461 1450 c 0
 383 1442 303 1339 293 1282 c 0xf2
 283 1214 311 1198 354 1196 c 0
 399 1194 459 1210 504 1208 c 0
 631 1202 803 1159 858 1073 c 0
 891 1022 926 932 932 864 c 0xec
 942 745 901 647 868 573 c 0
 854 540 867 514 883 487 c 0
 889 479 897 469 903 461 c 0
 932 422 964 376 952 313 c 0
 923 161 856 88 782 49 c 0
EndSplineSet
Validated: 33
EndChar

StartChar: copyright
Encoding: 169 169 93
Width: 823
GlyphClass: 2
Flags: HMW
HStem: 670 106 844 127 1163 162 1366 102
VStem: 6 109 160 129 684 121
LayerCount: 2
Fore
SplineSet
543 889 m 0
 531 883 516 878 502 872 c 0
 498 872 496 870 496 870 c 1
 412 815 274 860 221 901 c 0
 135 964 150 1124 201 1204 c 0
 238 1261 313 1317 393 1327 c 0
 459 1335 579 1266 559 1198 c 0
 539 1137 486 1172 451 1190 c 0
 439 1196 426 1200 420 1202 c 0
 344 1208 262 1082 297 1016 c 0
 328 959 392 967 453 983 c 0
 469 987 484 991 498 993 c 0
 512 997 525 999 535 999 c 0
 560 1001 576 994 578 967 c 0
 582 924 563 901 543 889 c 0
356 1366 m 0
 266 1360 183 1273 150 1212 c 0
 115 1149 100 973 131 903 c 0
 164 825 224 788 330 776 c 0
 445 764 543 795 600 846 c 0
 643 885 684 1008 686 1071 c 0
 690 1266 567 1380 356 1366 c 0
729 846 m 0
 719 828 706 806 694 788 c 0
 665 749 630 716 575 698 c 0
 469 663 284 649 143 727 c 0
 88 756 14 841 2 913 c 0
 -8 976 0 1079 6 1147 c 0
 14 1231 67 1313 102 1362 c 0
 151 1430 252 1464 358 1470 c 0
 497 1476 684 1425 737 1333 c 0
 807 1208 842 1028 760 899 c 0
 750 883 739 864 729 846 c 0
EndSplineSet
Validated: 33
EndChar

StartChar: registered
Encoding: 174 174 94
Width: 825
GlyphClass: 2
Flags: HMW
HStem: 602 125 952 125 1171 121 1343 115
VStem: 0 123 209 119 455 135 664 141
LayerCount: 2
Fore
SplineSet
633 1225 m 0
 625 1235 610 1243 598 1249 c 0
 586 1257 569 1268 559 1280 c 0
 524 1325 496 1345 420 1343 c 0
 295 1339 211 1284 168 1204 c 0
 102 1085 100 858 211 786 c 1
 203 817 201 848 203 881 c 0
 205 918 209 957 209 1006 c 0
 209 1031 205 1063 203 1094 c 0
 199 1127 195 1156 197 1174 c 0
 209 1334 610 1340 592 1147 c 0
 588 1104 553 1084 524 1057 c 0
 510 1045 498 1030 498 1010 c 0
 498 981 516 962 539 942 c 0
 562 922 586 901 594 870 c 0
 604 825 567 768 520 774 c 0
 497 778 479 807 465 834 c 2
 440 877 l 2
 432 889 426 901 420 907 c 0
 408 919 369 960 342 954 c 0
 328 950 326 926 326 897 c 0
 324 883 324 866 324 852 c 0
 322 840 321 825 317 815 c 0
 309 797 297 786 285 780 c 0
 275 774 264 770 254 762 c 1
 320 731 409 719 485 729 c 0
 622 745 650 907 666 1042 c 0
 674 1110 676 1174 633 1225 c 0
377 1174 m 0
 340 1170 313 1129 338 1092 c 0
 367 1047 459 1130 455 1157 c 0
 453 1180 402 1176 377 1174 c 0
799 1026 m 0
 793 999 782 973 778 948 c 0
 743 751 631 586 395 602 c 0
 162 618 22 734 2 965 c 0
 -12 1139 41 1294 129 1366 c 0
 176 1405 252 1452 338 1458 c 0
 504 1472 694 1417 745 1298 c 0
 749 1288 750 1274 754 1260 c 0
 756 1246 760 1228 764 1214 c 0
 768 1198 778 1181 786 1167 c 0
 794 1151 803 1136 805 1120 c 0
 809 1085 805 1055 799 1026 c 0
EndSplineSet
Validated: 33
EndChar

StartChar: degree
Encoding: 176 176 95
Width: 491
GlyphClass: 2
Flags: HMW
HStem: 1577 41G
VStem: 31 123 352 109
LayerCount: 2
Fore
SplineSet
346 1442 m 0
 326 1485 272 1517 219 1507 c 0
 98 1484 162 1290 285 1329 c 0
 357 1352 366 1401 346 1442 c 0
215 1214 m 0
 102 1232 -2 1331 39 1487 c 0
 49 1530 125 1608 186 1618 c 0
 225 1624 295 1605 334 1597 c 0
 393 1585 467 1505 463 1421 c 0
 455 1257 330 1196 215 1214 c 0
EndSplineSet
Validated: 33
EndChar

StartChar: paragraph
Encoding: 182 182 96
Width: 1140
GlyphClass: 2
Flags: HMW
HStem: -8 43G -4 43G<564 602 602 698> 1470 162
VStem: 518 201 909 207
LayerCount: 2
Fore
SplineSet
1108 307 m 0xb8
 1112 190 1112 80 1100 23 c 0
 1094 0 1076 -8 1051 -10 c 0
 1026 -12 996 -8 965 -6 c 0
 916 -4 905 430 909 598 c 0
 911 743 907 817 911 942 c 0
 913 979 922 1089 922 1198 c 0
 924 1307 917 1411 903 1440 c 0
 883 1481 815 1476 745 1460 c 0
 718 1454 711 1366 709 1260 c 0
 709 1158 715 1045 717 1006 c 0
 719 906 719 777 719 668 c 0
 719 578 723 449 723 326 c 0
 723 201 716 78 698 -4 c 1
 602 -4 l 2x78
 526 -4 516 131 518 268 c 0
 518 338 522 412 522 475 c 0
 520 538 516 589 504 618 c 0
 490 649 455 662 412 670 c 0
 367 680 319 684 276 707 c 0
 170 760 95 846 72 952 c 0
 -2 1290 193 1573 461 1614 c 0
 617 1637 805 1630 967 1634 c 0
 994 1634 1014 1636 1028 1636 c 0
 1044 1636 1057 1634 1067 1628 c 0
 1085 1616 1088 1587 1094 1530 c 0
 1112 1323 1124 811 1110 637 c 0
 1102 549 1106 424 1108 307 c 0xb8
EndSplineSet
Validated: 33
EndChar

StartChar: questiondown
Encoding: 191 191 97
Width: 886
GlyphClass: 2
Flags: HMW
HStem: -18 43G 1352 223
VStem: 59 227 410 229
LayerCount: 2
Fore
SplineSet
526 -18 m 0
 135 -36 -69 303 150 618 c 0
 205 698 309 754 432 801 c 0
 444 805 442 872 442 940 c 0
 442 975 440 1009 440 1036 c 0
 440 1065 440 1086 442 1094 c 0
 467 1160 600 1182 610 1114 c 0
 618 1051 643 737 610 651 c 0
 598 618 553 606 508 596 c 0
 485 590 461 586 438 582 c 0
 415 578 395 571 381 563 c 0
 231 487 240 137 537 182 c 0
 598 192 639 223 678 268 c 0
 690 280 701 295 713 307 c 0
 756 358 796 397 872 352 c 0
 888 342 915 307 915 268 c 0
 911 131 676 -10 526 -18 c 0
449 1550 m 0
 512 1599 583 1571 618 1524 c 0
 655 1475 651 1403 565 1366 c 0
 432 1309 361 1480 449 1550 c 0
EndSplineSet
Validated: 33
EndChar

StartChar: multiply
Encoding: 215 215 98
Width: 772
GlyphClass: 2
Flags: HMW
HStem: 463 657
VStem: 57 698 252 317
LayerCount: 2
Fore
SplineSet
743 981 m 0xc0
 735 969 725 958 713 946 c 0
 703 934 688 921 676 905 c 0
 668 893 657 884 645 874 c 0
 635 864 622 854 610 844 c 0
 587 826 571 807 569 791 c 0xa0
 565 717 612 678 659 635 c 0
 686 610 713 584 723 547 c 0
 733 502 696 481 657 469 c 0
 598 451 553 496 512 541 c 0
 494 561 473 586 453 604 c 0
 433 622 411 635 391 635 c 0
 344 637 305 594 276 563 c 0
 264 549 252 536 242 524 c 0
 195 475 146 440 80 514 c 0
 29 571 74 618 125 659 c 0
 152 679 182 701 207 721 c 0
 232 739 250 760 254 780 c 0
 260 809 246 837 223 866 c 0
 198 897 170 921 141 950 c 0
 86 1005 54 1061 154 1114 c 0
 203 1139 246 1098 285 1053 c 0
 305 1030 324 1005 344 985 c 0
 364 965 386 950 406 946 c 0
 431 940 454 954 483 977 c 0
 495 987 510 1000 524 1014 c 0
 536 1028 551 1041 565 1055 c 0
 620 1106 682 1145 739 1059 c 0
 762 1026 759 1004 743 981 c 0xc0
EndSplineSet
Validated: 33
EndChar

StartChar: circumflex
Encoding: 710 710 99
Width: 694
GlyphClass: 2
Flags: HMW
HStem: 1677 375
VStem: 252 489
LayerCount: 2
Fore
SplineSet
684 1694 m 0
 653 1700 626 1740 610 1763 c 0
 600 1777 588 1790 578 1802 c 0
 568 1814 553 1827 545 1837 c 0
 541 1841 536 1850 530 1860 c 0
 524 1872 516 1884 510 1896 c 0
 496 1916 485 1939 479 1937 c 0
 469 1931 438 1888 430 1878 c 0
 416 1858 399 1833 383 1804 c 0
 371 1781 364 1758 354 1733 c 0
 344 1710 332 1689 309 1681 c 0
 280 1669 258 1685 254 1708 c 0
 246 1745 281 1812 297 1837 c 0
 326 1882 358 1935 391 1982 c 0
 409 2011 459 2073 494 2048 c 0
 517 2034 545 1990 557 1972 c 0
 571 1952 588 1925 604 1907 c 0
 624 1880 653 1861 678 1841 c 0
 705 1821 727 1798 739 1769 c 0
 753 1730 731 1684 684 1694 c 0
EndSplineSet
Validated: 33
EndChar

StartChar: endash
Encoding: 8211 8211 100
Width: 761
GlyphClass: 2
Flags: HMW
HStem: 659 186
VStem: 61 655
LayerCount: 2
Fore
SplineSet
643 668 m 0
 614 662 584 659 553 659 c 0
 522 659 495 662 475 662 c 2
 367 662 l 2
 326 662 287 662 256 666 c 0
 231 670 191 668 152 672 c 0
 117 674 80 682 72 707 c 0
 56 762 66 793 86 809 c 0
 106 825 133 830 158 834 c 0
 281 850 420 852 537 842 c 0
 564 840 602 837 635 831 c 0
 666 825 699 817 707 799 c 0
 738 719 698 682 643 668 c 0
EndSplineSet
Validated: 33
EndChar

StartChar: emdash
Encoding: 8212 8212 101
Width: 1026
GlyphClass: 2
Flags: HMW
HStem: 659 180
VStem: 53 930
LayerCount: 2
Fore
SplineSet
879 668 m 0
 840 662 795 657 752 657 c 0
 709 657 670 659 639 659 c 0
 559 661 414 656 328 664 c 0
 293 668 233 666 180 670 c 0
 129 672 78 680 68 705 c 0
 43 760 57 791 88 809 c 0
 117 825 157 829 188 831 c 0
 364 849 561 850 729 840 c 0
 766 838 819 835 866 829 c 0
 913 823 957 815 967 797 c 0
 1014 715 957 682 879 668 c 0
EndSplineSet
Validated: 33
EndChar

StartChar: bullet
Encoding: 8226 8226 102
Width: 628
GlyphClass: 2
Flags: HMW
HStem: 588 522
VStem: 76 516
LayerCount: 2
Fore
SplineSet
84 778 m 0
 53 915 125 1081 324 1108 c 0
 637 1151 670 711 459 623 c 0
 248 533 115 641 84 778 c 0
EndSplineSet
Validated: 33
EndChar

StartChar: trademark
Encoding: 8482 8482 104
Width: 825
GlyphClass: 2
Flags: HMW
HStem: 1339 82
VStem: 174 100 410 76 709 82
LayerCount: 2
Fore
SplineSet
770 944 m 0
 727 944 719 963 717 1010 c 0
 717 1055 719 1130 709 1255 c 1
 697 1251 682 1237 668 1219 c 0
 660 1209 653 1198 645 1190 c 0
 639 1182 631 1173 623 1169 c 0
 613 1165 602 1174 592 1182 c 0
 582 1192 571 1205 561 1217 c 0
 543 1242 522 1268 510 1262 c 0
 494 1258 487 1237 485 1204 c 0
 485 1173 490 1135 492 1098 c 0
 498 1018 497 942 446 944 c 0
 432 944 424 959 422 973 c 0
 418 985 416 1004 416 1016 c 0
 400 1129 412 1243 412 1331 c 0
 412 1341 323 1349 276 1331 c 0
 266 1327 268 1303 268 1268 c 0
 268 1231 274 1184 276 1137 c 0
 280 1047 282 944 227 944 c 0
 188 944 176 981 174 1022 c 0
 170 1063 176 1112 174 1147 c 0
 174 1165 180 1206 182 1243 c 0
 184 1282 184 1315 174 1325 c 0
 170 1329 153 1331 135 1331 c 0
 112 1331 89 1331 66 1333 c 0
 21 1335 -27 1348 4 1401 c 0
 12 1417 33 1421 51 1421 c 0
 71 1421 92 1419 106 1419 c 0
 169 1423 362 1423 438 1423 c 0
 463 1423 491 1391 520 1358 c 0
 534 1344 547 1329 561 1317 c 0
 573 1305 586 1298 596 1298 c 0
 612 1298 637 1318 662 1343 c 0
 674 1355 684 1370 694 1380 c 0
 704 1392 715 1401 721 1407 c 0
 750 1427 772 1424 782 1401 c 0
 792 1378 795 1344 793 1305 c 0
 791 1225 793 1155 793 1073 c 0
 793 1026 784 944 770 944 c 0
EndSplineSet
Validated: 33
EndChar

StartChar: minus
Encoding: 8722 8722 105
Width: 694
GlyphClass: 2
Flags: HMW
HStem: 659 186
VStem: 111 537
LayerCount: 2
Fore
SplineSet
588 668 m 0
 563 662 539 659 512 659 c 0
 489 659 465 662 449 662 c 2
 360 662 l 2
 327 662 293 662 268 666 c 0
 250 670 215 668 184 672 c 0
 153 674 123 682 117 707 c 0
 103 762 113 793 129 809 c 0
 145 825 168 830 188 834 c 0
 290 850 404 852 500 842 c 0
 523 840 553 837 580 831 c 0
 607 825 633 815 639 797 c 0
 666 719 635 684 588 668 c 0
EndSplineSet
Validated: 33
EndChar

StartChar: integral
Encoding: 8747 8747 106
Width: 1089
GlyphClass: 2
Flags: HMW
HStem: -225 186 1645 176
VStem: 0 1161
LayerCount: 2
Fore
SplineSet
1014 1516 m 0
 1002 1530 993 1547 985 1563 c 0
 975 1579 962 1598 946 1612 c 0
 885 1671 830 1641 799 1604 c 0
 791 1596 784 1571 778 1540 c 0
 772 1513 768 1482 766 1462 c 0
 739 1298 694 928 643 582 c 0
 594 236 537 -91 469 -152 c 0
 324 -285 2 -242 0 8 c 0
 0 76 45 138 127 113 c 0
 141 109 152 96 162 80 c 0
 170 66 178 47 186 31 c 0
 202 -6 221 -37 260 -39 c 0
 328 -43 363 2 381 59 c 0
 389 88 395 118 399 147 c 0
 403 178 406 205 410 225 c 0
 433 344 447 467 465 594 c 0
 506 862 553 1200 584 1485 c 0
 592 1563 633 1817 795 1823 c 0
 922 1829 1019 1794 1087 1741 c 0
 1157 1688 1196 1507 1126 1487 c 0
 1063 1469 1034 1485 1014 1516 c 0
EndSplineSet
Validated: 33
EndChar

StartChar: notequal
Encoding: 8800 8800 107
Width: 675
GlyphClass: 2
Flags: HMW
HStem: 678 125 909 123
VStem: 68 592
LayerCount: 2
Fore
SplineSet
539 688 m 0
 480 680 409 680 358 678 c 1
 329 600 291 523 225 543 c 0
 188 555 203 619 223 680 c 1
 157 686 88 698 76 729 c 0
 43 805 158 807 201 807 c 0
 224 807 246 805 264 803 c 1
 274 830 289 868 303 911 c 1
 287 909 265 907 240 903 c 0
 211 901 183 899 154 901 c 0
 103 903 56 922 70 981 c 0
 82 1028 248 1032 350 1030 c 1
 393 1124 442 1220 481 1206 c 0
 512 1194 541 1167 518 1114 c 0
 508 1089 497 1061 485 1032 c 1
 496 1032 l 2
 533 1036 588 1030 623 1014 c 0
 660 998 678 969 637 932 c 0
 623 918 598 913 573 911 c 0
 548 909 520 909 500 911 c 2
 442 911 l 1
 428 874 415 838 403 803 c 1
 458 807 512 811 559 813 c 0
 604 815 669 790 659 741 c 0
 651 708 596 694 539 688 c 0
EndSplineSet
Validated: 33
EndChar
